<svg width="32" height="32" viewBox="0 0 32 32" fill="none" xmlns="http://www.w3.org/2000/svg">
<path d="M3.75 11.4395C3.19401 11.4395 2.91602 11.1523 2.91602 10.5781V7.06445C2.91602 5.74284 3.25326 4.74935 3.92773 4.08398C4.60221 3.41862 5.60482 3.08594 6.93555 3.08594H10.4492C11.0234 3.08594 11.3105 3.36393 11.3105 3.91992C11.3105 4.48503 11.0234 4.76758 10.4492 4.76758H6.97656C6.20182 4.76758 5.60938 4.9681 5.19922 5.36914C4.79818 5.77018 4.59766 6.36719 4.59766 7.16016V10.5781C4.59766 11.1523 4.3151 11.4395 3.75 11.4395ZM28.2227 11.4395C27.6667 11.4395 27.3887 11.1523 27.3887 10.5781V7.16016C27.3887 6.36719 27.179 5.77018 26.7598 5.36914C26.3405 4.9681 25.7526 4.76758 24.9961 4.76758H21.5371C20.9629 4.76758 20.6758 4.48503 20.6758 3.91992C20.6758 3.36393 20.9629 3.08594 21.5371 3.08594H25.0371C26.377 3.08594 27.3841 3.42318 28.0586 4.09766C28.7331 4.76302 29.0703 5.75195 29.0703 7.06445V10.5781C29.0703 11.1523 28.7878 11.4395 28.2227 11.4395ZM6.93555 29.2266C5.60482 29.2266 4.60221 28.8893 3.92773 28.2148C3.25326 27.5495 2.91602 26.556 2.91602 25.2344V21.7344C2.91602 21.1602 3.19401 20.873 3.75 20.873C4.3151 20.873 4.59766 21.1602 4.59766 21.7344V25.1523C4.59766 25.9453 4.79818 26.5423 5.19922 26.9434C5.60938 27.3444 6.20182 27.5449 6.97656 27.5449H10.4492C11.0234 27.5449 11.3105 27.8275 11.3105 28.3926C11.3105 28.9486 11.0234 29.2266 10.4492 29.2266H6.93555ZM21.5371 29.2266C20.9629 29.2266 20.6758 28.9486 20.6758 28.3926C20.6758 27.8275 20.9629 27.5449 21.5371 27.5449H24.9961C25.7526 27.5449 26.3405 27.3444 26.7598 26.9434C27.179 26.5423 27.3887 25.9453 27.3887 25.1523V21.7344C27.3887 21.1602 27.6667 20.873 28.2227 20.873C28.7878 20.873 29.0703 21.1602 29.0703 21.7344V25.2344C29.0703 26.556 28.7331 27.5495 28.0586 28.2148C27.3841 28.8893 26.377 29.2266 25.0371 29.2266H21.5371Z" fill="#3DCFFF"/>
<path d="M13.2188 23.2344C13.026 23.2344 12.8698 23.1745 12.75 23.0547C12.6354 22.9401 12.5781 22.7812 12.5781 22.5781V9.71094C12.5781 9.50781 12.6354 9.34896 12.75 9.23438C12.8698 9.11458 13.026 9.05469 13.2188 9.05469C13.401 9.05469 13.5521 9.11458 13.6719 9.23438C13.7917 9.34896 13.8516 9.50781 13.8516 9.71094V22.5781C13.8516 22.7812 13.7917 22.9401 13.6719 23.0547C13.5521 23.1745 13.401 23.2344 13.2188 23.2344ZM18.7344 23.2344C18.5417 23.2344 18.388 23.1745 18.2734 23.0547C18.1589 22.9401 18.1016 22.7812 18.1016 22.5781V9.71094C18.1016 9.50781 18.1589 9.34896 18.2734 9.23438C18.388 9.11458 18.5417 9.05469 18.7344 9.05469C18.9271 9.05469 19.0807 9.11458 19.1953 9.23438C19.3099 9.34896 19.3672 9.50781 19.3672 9.71094V22.5781C19.3672 22.7812 19.3099 22.9401 19.1953 23.0547C19.0807 23.1745 18.9271 23.2344 18.7344 23.2344ZM9.39844 19.4688C9.19531 19.4688 9.03385 19.4115 8.91406 19.2969C8.79427 19.1771 8.73438 19.0234 8.73438 18.8359C8.73438 18.6432 8.79427 18.4896 8.91406 18.375C9.03385 18.2604 9.19531 18.2031 9.39844 18.2031H22.5859C22.7943 18.2031 22.9583 18.2604 23.0781 18.375C23.1979 18.4896 23.2578 18.6432 23.2578 18.8359C23.2578 19.0234 23.1979 19.1771 23.0781 19.2969C22.9583 19.4115 22.7943 19.4688 22.5859 19.4688H9.39844ZM9.39844 14.1328C9.19531 14.1328 9.03385 14.0729 8.91406 13.9531C8.79427 13.8333 8.73438 13.6797 8.73438 13.4922C8.73438 13.3047 8.79427 13.1536 8.91406 13.0391C9.03385 12.9193 9.19531 12.8594 9.39844 12.8594H22.5859C22.7943 12.8594 22.9583 12.9193 23.0781 13.0391C23.1979 13.1536 23.2578 13.3047 23.2578 13.4922C23.2578 13.6797 23.1979 13.8333 23.0781 13.9531C22.9583 14.0729 22.7943 14.1328 22.5859 14.1328H9.39844Z" fill="#3DCFFF"/>
</svg>
