<svg width="38" height="37" viewBox="0 0 38 37" fill="none" xmlns="http://www.w3.org/2000/svg">
<mask id="path-1-inside-1_540_9533" fill="white">
<path fill-rule="evenodd" clip-rule="evenodd" d="M3.42285 10.4922C3.42285 11.0664 3.70085 11.3535 4.25684 11.3535C4.82194 11.3535 5.10449 11.0664 5.10449 10.4922V7.07422C5.10449 6.28125 5.30501 5.68424 5.70605 5.2832C6.11621 4.88216 6.70866 4.68164 7.4834 4.68164H10.9561C11.5303 4.68164 11.8174 4.39909 11.8174 3.83398C11.8174 3.27799 11.5303 3 10.9561 3H7.44238C6.11165 3 5.10905 3.33268 4.43457 3.99805C3.76009 4.66341 3.42285 5.6569 3.42285 6.97852V10.4922ZM27.8955 10.4922C27.8955 11.0664 28.1735 11.3535 28.7295 11.3535C29.2946 11.3535 29.5771 11.0664 29.5771 10.4922V6.97852C29.5771 5.66602 29.2399 4.67708 28.5654 4.01172C27.891 3.33724 26.8838 3 25.5439 3H22.0439C21.4697 3 21.1826 3.27799 21.1826 3.83398C21.1826 4.39909 21.4697 4.68164 22.0439 4.68164H25.5029C26.2594 4.68164 26.8473 4.88216 27.2666 5.2832C27.6859 5.68424 27.8955 6.28125 27.8955 7.07422V10.4922ZM4.43457 28.1289C5.10905 28.8034 6.11165 29.1406 7.44238 29.1406H10.9561C11.5303 29.1406 11.8174 28.8626 11.8174 28.3066C11.8174 27.7415 11.5303 27.459 10.9561 27.459H7.4834C6.70866 27.459 6.11621 27.2585 5.70605 26.8574C5.30501 26.4564 5.10449 25.8594 5.10449 25.0664V21.6484C5.10449 21.0742 4.82194 20.7871 4.25684 20.7871C3.70085 20.7871 3.42285 21.0742 3.42285 21.6484V25.1484C3.42285 26.4701 3.76009 27.4635 4.43457 28.1289Z"/>
</mask>
<path fill-rule="evenodd" clip-rule="evenodd" d="M3.42285 10.4922C3.42285 11.0664 3.70085 11.3535 4.25684 11.3535C4.82194 11.3535 5.10449 11.0664 5.10449 10.4922V7.07422C5.10449 6.28125 5.30501 5.68424 5.70605 5.2832C6.11621 4.88216 6.70866 4.68164 7.4834 4.68164H10.9561C11.5303 4.68164 11.8174 4.39909 11.8174 3.83398C11.8174 3.27799 11.5303 3 10.9561 3H7.44238C6.11165 3 5.10905 3.33268 4.43457 3.99805C3.76009 4.66341 3.42285 5.6569 3.42285 6.97852V10.4922ZM27.8955 10.4922C27.8955 11.0664 28.1735 11.3535 28.7295 11.3535C29.2946 11.3535 29.5771 11.0664 29.5771 10.4922V6.97852C29.5771 5.66602 29.2399 4.67708 28.5654 4.01172C27.891 3.33724 26.8838 3 25.5439 3H22.0439C21.4697 3 21.1826 3.27799 21.1826 3.83398C21.1826 4.39909 21.4697 4.68164 22.0439 4.68164H25.5029C26.2594 4.68164 26.8473 4.88216 27.2666 5.2832C27.6859 5.68424 27.8955 6.28125 27.8955 7.07422V10.4922ZM4.43457 28.1289C5.10905 28.8034 6.11165 29.1406 7.44238 29.1406H10.9561C11.5303 29.1406 11.8174 28.8626 11.8174 28.3066C11.8174 27.7415 11.5303 27.459 10.9561 27.459H7.4834C6.70866 27.459 6.11621 27.2585 5.70605 26.8574C5.30501 26.4564 5.10449 25.8594 5.10449 25.0664V21.6484C5.10449 21.0742 4.82194 20.7871 4.25684 20.7871C3.70085 20.7871 3.42285 21.0742 3.42285 21.6484V25.1484C3.42285 26.4701 3.76009 27.4635 4.43457 28.1289Z" fill="#3DFFAF"/>
<path d="M5.70605 5.2832L5.00689 4.56815L4.99895 4.5761L5.70605 5.2832ZM4.43457 3.99805L3.73229 3.28615L4.43457 3.99805ZM28.5654 4.01172L27.8583 4.71884L27.8631 4.72362L28.5654 4.01172ZM27.2666 5.2832L27.9578 4.56056L27.9578 4.56056L27.2666 5.2832ZM4.43457 28.1289L5.14169 27.4218L5.13685 27.417L4.43457 28.1289ZM5.70605 26.8574L4.9989 27.5646L5.00694 27.5724L5.70605 26.8574ZM4.25684 10.3535C4.20103 10.3535 4.19375 10.346 4.21748 10.3541C4.2464 10.3641 4.29883 10.39 4.34977 10.4426C4.40003 10.4945 4.42064 10.5433 4.42664 10.5619C4.43119 10.576 4.42285 10.5581 4.42285 10.4922H2.42285C2.42285 10.9255 2.52739 11.4356 2.91293 11.8338C3.30427 12.238 3.81635 12.3535 4.25684 12.3535V10.3535ZM4.10449 10.4922C4.10449 10.5568 4.0962 10.573 4.10133 10.5573C4.108 10.537 4.12948 10.4879 4.17984 10.4368C4.23053 10.3852 4.28141 10.3612 4.30688 10.3525C4.32733 10.3456 4.31637 10.3535 4.25684 10.3535V12.3535C4.69762 12.3535 5.21098 12.2403 5.60532 11.8396C5.99676 11.4419 6.10449 10.9295 6.10449 10.4922H4.10449ZM4.10449 7.07422V10.4922H6.10449V7.07422H4.10449ZM4.99895 4.5761C4.34616 5.22888 4.10449 6.12325 4.10449 7.07422H6.10449C6.10449 6.43925 6.26386 6.13961 6.41316 5.99031L4.99895 4.5761ZM7.4834 3.68164C6.54122 3.68164 5.66176 3.92792 5.00694 4.5682L6.40517 5.99821C6.57066 5.8364 6.8761 5.68164 7.4834 5.68164V3.68164ZM10.9561 3.68164H7.4834V5.68164H10.9561V3.68164ZM10.8174 3.83398C10.8174 3.89352 10.8095 3.90447 10.8164 3.88403C10.825 3.85856 10.8491 3.80768 10.9006 3.75699C10.9518 3.70663 11.0009 3.68515 11.0212 3.67848C11.0368 3.67334 11.0206 3.68164 10.9561 3.68164V5.68164C11.3933 5.68164 11.9057 5.5739 12.3035 5.18247C12.7042 4.78812 12.8174 4.27477 12.8174 3.83398H10.8174ZM10.9561 4C11.022 4 11.0398 4.00834 11.0257 4.00379C11.0072 3.99779 10.9584 3.97718 10.9064 3.92691C10.8538 3.87598 10.828 3.82354 10.818 3.79463C10.8098 3.7709 10.8174 3.77818 10.8174 3.83398H12.8174C12.8174 3.3935 12.7018 2.88142 12.2977 2.49008C11.8995 2.10454 11.3894 2 10.9561 2V4ZM7.44238 4H10.9561V2H7.44238V4ZM5.13685 4.70995C5.55949 4.29302 6.26694 4 7.44238 4V2C5.95637 2 4.65861 2.37235 3.73229 3.28615L5.13685 4.70995ZM4.42285 6.97852C4.42285 5.81685 4.71782 5.12332 5.13685 4.70995L3.73229 3.28615C2.80237 4.2035 2.42285 5.49695 2.42285 6.97852H4.42285ZM4.42285 10.4922V6.97852H2.42285V10.4922H4.42285ZM28.7295 10.3535C28.6737 10.3535 28.6664 10.346 28.6901 10.3541C28.7191 10.3641 28.7715 10.39 28.8224 10.4426C28.8727 10.4945 28.8933 10.5433 28.8993 10.5619C28.9038 10.576 28.8955 10.5581 28.8955 10.4922H26.8955C26.8955 10.9255 27 11.4356 27.3856 11.8338C27.7769 12.238 28.289 12.3535 28.7295 12.3535V10.3535ZM28.5771 10.4922C28.5771 10.5568 28.5689 10.573 28.574 10.5573C28.5807 10.537 28.6021 10.4879 28.6525 10.4368C28.7032 10.3852 28.7541 10.3612 28.7795 10.3525C28.8 10.3456 28.789 10.3535 28.7295 10.3535V12.3535C29.1703 12.3535 29.6836 12.2403 30.078 11.8396C30.4694 11.4419 30.5771 10.9295 30.5771 10.4922H28.5771ZM28.5771 6.97852V10.4922H30.5771V6.97852H28.5771ZM27.8631 4.72362C28.2834 5.13818 28.5771 5.82832 28.5771 6.97852H30.5771C30.5771 5.50371 30.1964 4.21599 29.2677 3.29982L27.8631 4.72362ZM25.5439 4C26.7274 4 27.4364 4.29688 27.8583 4.71883L29.2725 3.30461C28.3455 2.3776 27.0402 2 25.5439 2V4ZM22.0439 4H25.5439V2H22.0439V4ZM22.1826 3.83398C22.1826 3.77818 22.1902 3.7709 22.182 3.79463C22.172 3.82354 22.1462 3.87598 22.0936 3.92691C22.0416 3.97718 21.9928 3.99779 21.9743 4.00379C21.9602 4.00834 21.978 4 22.0439 4V2C21.6106 2 21.1005 2.10454 20.7023 2.49008C20.2982 2.88142 20.1826 3.3935 20.1826 3.83398H22.1826ZM22.0439 3.68164C21.9794 3.68164 21.9632 3.67334 21.9788 3.67848C21.9991 3.68515 22.0482 3.70663 22.0994 3.75699C22.1509 3.80768 22.175 3.85856 22.1836 3.88403C22.1905 3.90447 22.1826 3.89352 22.1826 3.83398H20.1826C20.1826 4.27477 20.2958 4.78812 20.6965 5.18247C21.0943 5.5739 21.6067 5.68164 22.0439 5.68164V3.68164ZM25.5029 3.68164H22.0439V5.68164H25.5029V3.68164ZM27.9578 4.56056C27.3012 3.93248 26.436 3.68164 25.5029 3.68164V5.68164C26.0829 5.68164 26.3935 5.83184 26.5754 6.00585L27.9578 4.56056ZM28.8955 7.07422C28.8955 6.11153 28.6382 5.21134 27.9578 4.56056L26.5754 6.00585C26.7336 6.15715 26.8955 6.45097 26.8955 7.07422H28.8955ZM28.8955 10.4922V7.07422H26.8955V10.4922H28.8955ZM7.44238 28.1406C6.27038 28.1406 5.56478 27.8449 5.14168 27.4218L3.72746 28.836C4.65332 29.7619 5.95293 30.1406 7.44238 30.1406V28.1406ZM10.9561 28.1406H7.44238V30.1406H10.9561V28.1406ZM10.8174 28.3066C10.8174 28.3624 10.8098 28.3697 10.818 28.346C10.828 28.3171 10.8538 28.2646 10.9064 28.2137C10.9584 28.1634 11.0072 28.1428 11.0257 28.1368C11.0398 28.1323 11.022 28.1406 10.9561 28.1406V30.1406C11.3894 30.1406 11.8995 30.0361 12.2977 29.6505C12.7018 29.2592 12.8174 28.7471 12.8174 28.3066H10.8174ZM10.9561 28.459C11.0206 28.459 11.0368 28.4673 11.0212 28.4621C11.0009 28.4555 10.9518 28.434 10.9006 28.3836C10.8491 28.3329 10.825 28.2821 10.8164 28.2566C10.8095 28.2362 10.8174 28.2471 10.8174 28.3066H12.8174C12.8174 27.8659 12.7042 27.3525 12.3035 26.9582C11.9057 26.5667 11.3933 26.459 10.9561 26.459V28.459ZM7.4834 28.459H10.9561V26.459H7.4834V28.459ZM5.00694 27.5724C5.66176 28.2127 6.54122 28.459 7.4834 28.459V26.459C6.8761 26.459 6.57066 26.3042 6.40517 26.1424L5.00694 27.5724ZM4.10449 25.0664C4.10449 26.0174 4.34616 26.9117 4.99895 27.5645L6.41316 26.1503C6.26386 26.001 6.10449 25.7014 6.10449 25.0664H4.10449ZM4.10449 21.6484V25.0664H6.10449V21.6484H4.10449ZM4.25684 21.7871C4.31637 21.7871 4.32733 21.795 4.30688 21.7881C4.28141 21.7795 4.23053 21.7554 4.17984 21.7039C4.12948 21.6527 4.108 21.6036 4.10133 21.5833C4.0962 21.5676 4.10449 21.5839 4.10449 21.6484H6.10449C6.10449 21.2112 5.99676 20.6988 5.60532 20.301C5.21098 19.9003 4.69762 19.7871 4.25684 19.7871V21.7871ZM4.42285 21.6484C4.42285 21.5825 4.43119 21.5647 4.42664 21.5788C4.42064 21.5973 4.40003 21.6461 4.34977 21.6981C4.29883 21.7507 4.2464 21.7765 4.21748 21.7865C4.19375 21.7946 4.20103 21.7871 4.25684 21.7871V19.7871C3.81635 19.7871 3.30427 19.9027 2.91293 20.3068C2.52739 20.705 2.42285 21.2151 2.42285 21.6484H4.42285ZM4.42285 25.1484V21.6484H2.42285V25.1484H4.42285ZM5.13685 27.417C4.71781 27.0036 4.42285 26.3101 4.42285 25.1484H2.42285C2.42285 26.63 2.80237 27.9234 3.73229 28.8408L5.13685 27.417Z" fill="#3DFFAF" mask="url(#path-1-inside-1_540_9533)"/>
<path d="M16.5 9V23" stroke="#3DFFAF" stroke-width="1.2" stroke-linecap="round"/>
<path d="M21.9989 19.9571L19.0339 16.0002L21.9989 12.0433V19.9571Z" fill="#3DFFAF" stroke="#3DFFAF" stroke-linecap="round"/>
<path d="M11.0011 19.9549L13.9661 15.998L11.0011 12.0411V19.9549Z" fill="#3DFFAF" stroke="#3DFFAF" stroke-linecap="round"/>
<path d="M28.2583 20.6362C27.9417 20.6652 27.6598 20.8959 27.5845 21.2295L27.1685 23.0635L25.1353 25.3223C24.887 25.5975 24.75 25.9552 24.75 26.3257V33.25C24.75 34.0788 25.4212 34.75 26.25 34.75H32.2734C32.8292 34.75 33.3324 34.4228 33.5581 33.9151L35.8096 28.8482C35.9348 28.5677 36 28.2636 36 27.9561V27.25C36 26.425 35.325 25.75 34.5 25.75H29.25C29.25 25.75 30 23.972 30 22.6475C30 21.4377 29.2218 20.9083 28.5806 20.6773C28.4735 20.6385 28.3638 20.6266 28.2583 20.6362ZM22.125 25.75C21.504 25.75 21 26.254 21 26.875V33.625C21 34.246 21.504 34.75 22.125 34.75C22.746 34.75 23.25 34.246 23.25 33.625V26.875C23.25 26.254 22.746 25.75 22.125 25.75Z" fill="#3DFFAF"/>
</svg>
