<svg width="33" height="32" viewBox="0 0 33 32" fill="none" xmlns="http://www.w3.org/2000/svg">
<path fill-rule="evenodd" clip-rule="evenodd" d="M2.92285 10.4219C2.92285 10.9961 3.20085 11.2832 3.75684 11.2832C4.32194 11.2832 4.60449 10.9961 4.60449 10.4219V7.00391C4.60449 6.21094 4.80501 5.61393 5.20605 5.21289C5.61621 4.81185 6.20866 4.61133 6.9834 4.61133H10.4561C11.0303 4.61133 11.3174 4.32878 11.3174 3.76367C11.3174 3.20768 11.0303 2.92969 10.4561 2.92969H6.94238C5.61165 2.92969 4.60905 3.26237 3.93457 3.92773C3.26009 4.5931 2.92285 5.58659 2.92285 6.9082V10.4219ZM27.3955 10.4219C27.3955 10.9961 27.6735 11.2832 28.2295 11.2832C28.7946 11.2832 29.0771 10.9961 29.0771 10.4219V6.9082C29.0771 5.5957 28.7399 4.60677 28.0654 3.94141C27.391 3.26693 26.3838 2.92969 25.0439 2.92969H21.5439C20.9697 2.92969 20.6826 3.20768 20.6826 3.76367C20.6826 4.32878 20.9697 4.61133 21.5439 4.61133H25.0029C25.7594 4.61133 26.3473 4.81185 26.7666 5.21289C27.1859 5.61393 27.3955 6.21094 27.3955 7.00391V10.4219ZM3.93457 28.0586C4.60905 28.7331 5.61165 29.0703 6.94238 29.0703H10.4561C11.0303 29.0703 11.3174 28.7923 11.3174 28.2363C11.3174 27.6712 11.0303 27.3887 10.4561 27.3887H6.9834C6.20866 27.3887 5.61621 27.1882 5.20605 26.7871C4.80501 26.3861 4.60449 25.7891 4.60449 24.9961V21.5781C4.60449 21.0039 4.32194 20.7168 3.75684 20.7168C3.20085 20.7168 2.92285 21.0039 2.92285 21.5781V25.0781C2.92285 26.3997 3.26009 27.3932 3.93457 28.0586Z" fill="#3DFFAF"/>
<path d="M26.3389 21.0908C26.1278 21.1101 25.9399 21.2639 25.8896 21.4863L25.6123 22.7089L24.2568 24.2148C24.0913 24.3983 24 24.6367 24 24.8837V29.4999C24 30.0524 24.4475 30.4999 25 30.4999H29.0156C29.3861 30.4999 29.7216 30.2818 29.8721 29.9433L31.373 26.5654C31.4565 26.3784 31.5 26.1756 31.5 25.9706V25.4999C31.5 24.9499 31.05 24.4999 30.5 24.4999H27C27 24.4999 27.5 23.3146 27.5 22.4316C27.5 21.6251 26.9812 21.2721 26.5537 21.1181C26.4823 21.0922 26.4092 21.0843 26.3389 21.0908ZM22.25 24.4999C21.836 24.4999 21.5 24.8359 21.5 25.2499V29.7499C21.5 30.1639 21.836 30.4999 22.25 30.4999C22.664 30.4999 23 30.1639 23 29.7499V25.2499C23 24.8359 22.664 24.4999 22.25 24.4999Z" fill="#3DFFAF"/>
<path d="M16 9V23" stroke="#3DFFAF" stroke-width="1.2" stroke-linecap="round"/>
<path d="M18.5337 16.0002L21.4988 12.0433V19.9571L18.5337 16.0002Z" fill="#3DFFAF" stroke="#3DFFAF" stroke-linecap="round"/>
<path d="M13.466 15.998L10.501 12.0411V19.9549L13.466 15.998Z" fill="#3DFFAF" stroke="#3DFFAF" stroke-linecap="round"/>
</svg>
