<svg width="33" height="32" viewBox="0 0 33 32" fill="none" xmlns="http://www.w3.org/2000/svg">
<path d="M13.2188 23.2344C13.026 23.2344 12.8698 23.1745 12.75 23.0547C12.6354 22.9401 12.5781 22.7812 12.5781 22.5781V9.71094C12.5781 9.50781 12.6354 9.34896 12.75 9.23438C12.8698 9.11458 13.026 9.05469 13.2188 9.05469C13.401 9.05469 13.5521 9.11458 13.6719 9.23438C13.7917 9.34896 13.8516 9.50781 13.8516 9.71094V22.5781C13.8516 22.7812 13.7917 22.9401 13.6719 23.0547C13.5521 23.1745 13.401 23.2344 13.2188 23.2344ZM18.7344 23.2344C18.5417 23.2344 18.388 23.1745 18.2734 23.0547C18.1589 22.9401 18.1016 22.7812 18.1016 22.5781V9.71094C18.1016 9.50781 18.1589 9.34896 18.2734 9.23438C18.388 9.11458 18.5417 9.05469 18.7344 9.05469C18.9271 9.05469 19.0807 9.11458 19.1953 9.23438C19.3099 9.34896 19.3672 9.50781 19.3672 9.71094V22.5781C19.3672 22.7812 19.3099 22.9401 19.1953 23.0547C19.0807 23.1745 18.9271 23.2344 18.7344 23.2344ZM9.39844 19.4688C9.19531 19.4688 9.03385 19.4115 8.91406 19.2969C8.79427 19.1771 8.73438 19.0234 8.73438 18.8359C8.73438 18.6432 8.79427 18.4896 8.91406 18.375C9.03385 18.2604 9.19531 18.2031 9.39844 18.2031H22.5859C22.7943 18.2031 22.9583 18.2604 23.0781 18.375C23.1979 18.4896 23.2578 18.6432 23.2578 18.8359C23.2578 19.0234 23.1979 19.1771 23.0781 19.2969C22.9583 19.4115 22.7943 19.4688 22.5859 19.4688H9.39844ZM9.39844 14.1328C9.19531 14.1328 9.03385 14.0729 8.91406 13.9531C8.79427 13.8333 8.73438 13.6797 8.73438 13.4922C8.73438 13.3047 8.79427 13.1536 8.91406 13.0391C9.03385 12.9193 9.19531 12.8594 9.39844 12.8594H22.5859C22.7943 12.8594 22.9583 12.9193 23.0781 13.0391C23.1979 13.1536 23.2578 13.3047 23.2578 13.4922C23.2578 13.6797 23.1979 13.8333 23.0781 13.9531C22.9583 14.0729 22.7943 14.1328 22.5859 14.1328H9.39844Z" fill="#F0F8FF"/>
<path fill-rule="evenodd" clip-rule="evenodd" d="M2.92285 10.4922C2.92285 11.0664 3.20085 11.3535 3.75684 11.3535C4.32194 11.3535 4.60449 11.0664 4.60449 10.4922V7.07422C4.60449 6.28125 4.80501 5.68424 5.20605 5.2832C5.61621 4.88216 6.20866 4.68164 6.9834 4.68164H10.4561C11.0303 4.68164 11.3174 4.39909 11.3174 3.83398C11.3174 3.27799 11.0303 3 10.4561 3H6.94238C5.61165 3 4.60905 3.33268 3.93457 3.99805C3.26009 4.66341 2.92285 5.6569 2.92285 6.97852V10.4922ZM27.3955 10.4922C27.3955 11.0664 27.6735 11.3535 28.2295 11.3535C28.7946 11.3535 29.0771 11.0664 29.0771 10.4922V6.97852C29.0771 5.66602 28.7399 4.67708 28.0654 4.01172C27.391 3.33724 26.3838 3 25.0439 3H21.5439C20.9697 3 20.6826 3.27799 20.6826 3.83398C20.6826 4.39909 20.9697 4.68164 21.5439 4.68164H25.0029C25.7594 4.68164 26.3473 4.88216 26.7666 5.2832C27.1859 5.68424 27.3955 6.28125 27.3955 7.07422V10.4922ZM3.93457 28.1289C4.60905 28.8034 5.61165 29.1406 6.94238 29.1406H10.4561C11.0303 29.1406 11.3174 28.8626 11.3174 28.3066C11.3174 27.7415 11.0303 27.459 10.4561 27.459H6.9834C6.20866 27.459 5.61621 27.2585 5.20605 26.8574C4.80501 26.4564 4.60449 25.8594 4.60449 25.0664V21.6484C4.60449 21.0742 4.32194 20.7871 3.75684 20.7871C3.20085 20.7871 2.92285 21.0742 2.92285 21.6484V25.1484C2.92285 26.4701 3.26009 27.4635 3.93457 28.1289Z" fill="#F0F8FF"/>
<path d="M26.3389 21.0908C26.1278 21.1101 25.9399 21.2639 25.8896 21.4863L25.6123 22.7089L24.2568 24.2148C24.0913 24.3983 24 24.6367 24 24.8837V29.4999C24 30.0524 24.4475 30.4999 25 30.4999H29.0156C29.3861 30.4999 29.7216 30.2818 29.8721 29.9433L31.373 26.5654C31.4565 26.3784 31.5 26.1756 31.5 25.9706V25.4999C31.5 24.9499 31.05 24.4999 30.5 24.4999H27C27 24.4999 27.5 23.3146 27.5 22.4316C27.5 21.6251 26.9812 21.2721 26.5537 21.1181C26.4823 21.0922 26.4092 21.0843 26.3389 21.0908ZM22.25 24.4999C21.836 24.4999 21.5 24.8359 21.5 25.2499V29.7499C21.5 30.1639 21.836 30.4999 22.25 30.4999C22.664 30.4999 23 30.1639 23 29.7499V25.2499C23 24.8359 22.664 24.4999 22.25 24.4999Z" fill="#3DFFAF"/>
</svg>
