<svg width="32" height="32" viewBox="0 0 32 32" fill="none" xmlns="http://www.w3.org/2000/svg">
<path d="M3.75684 11.2832C3.20085 11.2832 2.92285 10.9961 2.92285 10.4219V6.9082C2.92285 5.58659 3.26009 4.5931 3.93457 3.92773C4.60905 3.26237 5.61165 2.92969 6.94238 2.92969H10.4561C11.0303 2.92969 11.3174 3.20768 11.3174 3.76367C11.3174 4.32878 11.0303 4.61133 10.4561 4.61133H6.9834C6.20866 4.61133 5.61621 4.81185 5.20605 5.21289C4.80501 5.61393 4.60449 6.21094 4.60449 7.00391V10.4219C4.60449 10.9961 4.32194 11.2832 3.75684 11.2832ZM28.2295 11.2832C27.6735 11.2832 27.3955 10.9961 27.3955 10.4219V7.00391C27.3955 6.21094 27.1859 5.61393 26.7666 5.21289C26.3473 4.81185 25.7594 4.61133 25.0029 4.61133H21.5439C20.9697 4.61133 20.6826 4.32878 20.6826 3.76367C20.6826 3.20768 20.9697 2.92969 21.5439 2.92969H25.0439C26.3838 2.92969 27.391 3.26693 28.0654 3.94141C28.7399 4.60677 29.0771 5.5957 29.0771 6.9082V10.4219C29.0771 10.9961 28.7946 11.2832 28.2295 11.2832ZM6.94238 29.0703C5.61165 29.0703 4.60905 28.7331 3.93457 28.0586C3.26009 27.3932 2.92285 26.3997 2.92285 25.0781V21.5781C2.92285 21.0039 3.20085 20.7168 3.75684 20.7168C4.32194 20.7168 4.60449 21.0039 4.60449 21.5781V24.9961C4.60449 25.7891 4.80501 26.3861 5.20605 26.7871C5.61621 27.1882 6.20866 27.3887 6.9834 27.3887H10.4561C11.0303 27.3887 11.3174 27.6712 11.3174 28.2363C11.3174 28.7923 11.0303 29.0703 10.4561 29.0703H6.94238ZM21.5439 29.0703C20.9697 29.0703 20.6826 28.7923 20.6826 28.2363C20.6826 27.6712 20.9697 27.3887 21.5439 27.3887H25.0029C25.7594 27.3887 26.3473 27.1882 26.7666 26.7871C27.1859 26.3861 27.3955 25.7891 27.3955 24.9961V21.5781C27.3955 21.0039 27.6735 20.7168 28.2295 20.7168C28.7946 20.7168 29.0771 21.0039 29.0771 21.5781V25.0781C29.0771 26.3997 28.7399 27.3932 28.0654 28.0586C27.391 28.7331 26.3838 29.0703 25.0439 29.0703H21.5439Z" fill="#F0F8FF"/>
<path d="M16 9V23" stroke="#F0F8FF" stroke-width="1.2" stroke-linecap="round"/>
<path d="M18.5337 16.0002L21.4988 12.0433V19.9571L18.5337 16.0002Z" fill="#F0F8FF" stroke="#F0F8FF" stroke-linecap="round"/>
<path d="M13.466 15.998L10.501 12.0411V19.9549L13.466 15.998Z" fill="#F0F8FF" stroke="#F0F8FF" stroke-linecap="round"/>
</svg>
