<svg width="25" height="24" viewBox="0 0 25 24" fill="none" xmlns="http://www.w3.org/2000/svg">
<mask id="path-2-inside-1_540_9315" fill="white">
<path d="M3.75 8.59961C3.35286 8.59961 3.1543 8.39453 3.1543 7.98438V5.47461C3.1543 4.5306 3.39518 3.82096 3.87695 3.3457C4.35872 2.87044 5.07487 2.63281 6.02539 2.63281H8.53516C8.94531 2.63281 9.15039 2.83138 9.15039 3.22852C9.15039 3.63216 8.94531 3.83398 8.53516 3.83398H6.05469C5.5013 3.83398 5.07812 3.97721 4.78516 4.26367C4.4987 4.55013 4.35547 4.97656 4.35547 5.54297V7.98438C4.35547 8.39453 4.15365 8.59961 3.75 8.59961ZM21.2305 8.59961C20.8333 8.59961 20.6348 8.39453 20.6348 7.98438V5.54297C20.6348 4.97656 20.485 4.55013 20.1855 4.26367C19.8861 3.97721 19.4661 3.83398 18.9258 3.83398H16.4551C16.0449 3.83398 15.8398 3.63216 15.8398 3.22852C15.8398 2.83138 16.0449 2.63281 16.4551 2.63281H18.9551C19.9121 2.63281 20.6315 2.8737 21.1133 3.35547C21.5951 3.83073 21.8359 4.53711 21.8359 5.47461V7.98438C21.8359 8.39453 21.6341 8.59961 21.2305 8.59961ZM6.02539 21.3047C5.07487 21.3047 4.35872 21.0638 3.87695 20.582C3.39518 20.1068 3.1543 19.3971 3.1543 18.4531V15.9531C3.1543 15.543 3.35286 15.3379 3.75 15.3379C4.15365 15.3379 4.35547 15.543 4.35547 15.9531V18.3945C4.35547 18.9609 4.4987 19.3874 4.78516 19.6738C5.07812 19.9603 5.5013 20.1035 6.05469 20.1035H8.53516C8.94531 20.1035 9.15039 20.3053 9.15039 20.709C9.15039 21.1061 8.94531 21.3047 8.53516 21.3047H6.02539ZM16.4551 21.3047C16.0449 21.3047 15.8398 21.1061 15.8398 20.709C15.8398 20.3053 16.0449 20.1035 16.4551 20.1035H18.9258C19.4661 20.1035 19.8861 19.9603 20.1855 19.6738C20.485 19.3874 20.6348 18.9609 20.6348 18.3945V15.9531C20.6348 15.543 20.8333 15.3379 21.2305 15.3379C21.6341 15.3379 21.8359 15.543 21.8359 15.9531V18.4531C21.8359 19.3971 21.5951 20.1068 21.1133 20.582C20.6315 21.0638 19.9121 21.3047 18.9551 21.3047H16.4551Z"/>
</mask>
<path d="M3.75 8.59961C3.35286 8.59961 3.1543 8.39453 3.1543 7.98438V5.47461C3.1543 4.5306 3.39518 3.82096 3.87695 3.3457C4.35872 2.87044 5.07487 2.63281 6.02539 2.63281H8.53516C8.94531 2.63281 9.15039 2.83138 9.15039 3.22852C9.15039 3.63216 8.94531 3.83398 8.53516 3.83398H6.05469C5.5013 3.83398 5.07812 3.97721 4.78516 4.26367C4.4987 4.55013 4.35547 4.97656 4.35547 5.54297V7.98438C4.35547 8.39453 4.15365 8.59961 3.75 8.59961ZM21.2305 8.59961C20.8333 8.59961 20.6348 8.39453 20.6348 7.98438V5.54297C20.6348 4.97656 20.485 4.55013 20.1855 4.26367C19.8861 3.97721 19.4661 3.83398 18.9258 3.83398H16.4551C16.0449 3.83398 15.8398 3.63216 15.8398 3.22852C15.8398 2.83138 16.0449 2.63281 16.4551 2.63281H18.9551C19.9121 2.63281 20.6315 2.8737 21.1133 3.35547C21.5951 3.83073 21.8359 4.53711 21.8359 5.47461V7.98438C21.8359 8.39453 21.6341 8.59961 21.2305 8.59961ZM6.02539 21.3047C5.07487 21.3047 4.35872 21.0638 3.87695 20.582C3.39518 20.1068 3.1543 19.3971 3.1543 18.4531V15.9531C3.1543 15.543 3.35286 15.3379 3.75 15.3379C4.15365 15.3379 4.35547 15.543 4.35547 15.9531V18.3945C4.35547 18.9609 4.4987 19.3874 4.78516 19.6738C5.07812 19.9603 5.5013 20.1035 6.05469 20.1035H8.53516C8.94531 20.1035 9.15039 20.3053 9.15039 20.709C9.15039 21.1061 8.94531 21.3047 8.53516 21.3047H6.02539ZM16.4551 21.3047C16.0449 21.3047 15.8398 21.1061 15.8398 20.709C15.8398 20.3053 16.0449 20.1035 16.4551 20.1035H18.9258C19.4661 20.1035 19.8861 19.9603 20.1855 19.6738C20.485 19.3874 20.6348 18.9609 20.6348 18.3945V15.9531C20.6348 15.543 20.8333 15.3379 21.2305 15.3379C21.6341 15.3379 21.8359 15.543 21.8359 15.9531V18.4531C21.8359 19.3971 21.5951 20.1068 21.1133 20.582C20.6315 21.0638 19.9121 21.3047 18.9551 21.3047H16.4551Z" fill="#F0F8FF"/>
<path d="M4.78516 4.26367L4.08599 3.54862L4.07805 3.55657L4.78516 4.26367ZM21.1133 3.35547L20.4062 4.06259L20.411 4.06737L21.1133 3.35547ZM3.87695 20.582L4.58408 19.8749L4.57923 19.8701L3.87695 20.582ZM4.78516 19.6738L4.078 20.381L4.08604 20.3888L4.78516 19.6738ZM21.1133 20.582L20.411 19.8701L20.4062 19.8749L21.1133 20.582ZM3.75 7.59961C3.71392 7.59961 3.86858 7.59211 4.02164 7.75019C4.1689 7.90227 4.1543 8.04325 4.1543 7.98438H2.1543C2.1543 8.33566 2.23898 8.78425 2.5848 9.14141C2.93643 9.50457 3.38894 9.59961 3.75 9.59961V7.59961ZM4.1543 7.98438V5.47461H2.1543V7.98438H4.1543ZM4.1543 5.47461C4.1543 4.69055 4.35291 4.28087 4.57923 4.0576L3.17467 2.6338C2.43746 3.36105 2.1543 4.37065 2.1543 5.47461H4.1543ZM4.57923 4.0576C4.80917 3.83078 5.23016 3.63281 6.02539 3.63281V1.63281C4.91958 1.63281 3.90828 1.91011 3.17467 2.6338L4.57923 4.0576ZM6.02539 3.63281H8.53516V1.63281H6.02539V3.63281ZM8.53516 3.63281C8.59403 3.63281 8.45305 3.64741 8.30097 3.50016C8.14289 3.3471 8.15039 3.19244 8.15039 3.22852H10.1504C10.1504 2.86746 10.0554 2.41495 9.69219 2.06332C9.33503 1.7175 8.88644 1.63281 8.53516 1.63281V3.63281ZM8.15039 3.22852C8.15039 3.27211 8.14054 3.12203 8.29515 2.96988C8.44681 2.82063 8.59008 2.83398 8.53516 2.83398V4.83398C8.89039 4.83398 9.34128 4.74643 9.69801 4.39536C10.0577 4.04138 10.1504 3.58857 10.1504 3.22852H8.15039ZM8.53516 2.83398H6.05469V4.83398H8.53516V2.83398ZM6.05469 2.83398C5.33387 2.83398 4.62368 3.02297 4.08604 3.54867L5.48427 4.97868C5.53257 4.93145 5.66874 4.83398 6.05469 4.83398V2.83398ZM4.07805 3.55657C3.53985 4.09477 3.35547 4.81857 3.35547 5.54297H5.35547C5.35547 5.13456 5.45755 5.00549 5.49226 4.97078L4.07805 3.55657ZM3.35547 5.54297V7.98438H5.35547V5.54297H3.35547ZM3.35547 7.98438C3.35547 8.0393 3.34211 7.89603 3.49136 7.74437C3.64352 7.58976 3.79359 7.59961 3.75 7.59961V9.59961C4.11005 9.59961 4.56286 9.50692 4.91684 9.14723C5.26791 8.79049 5.35547 8.33961 5.35547 7.98438H3.35547ZM21.2305 7.59961C21.1944 7.59961 21.349 7.59211 21.5021 7.75019C21.6494 7.90227 21.6348 8.04325 21.6348 7.98438H19.6348C19.6348 8.33566 19.7194 8.78425 20.0653 9.14141C20.4169 9.50457 20.8694 9.59961 21.2305 9.59961V7.59961ZM21.6348 7.98438V5.54297H19.6348V7.98438H21.6348ZM21.6348 5.54297C21.6348 4.80684 21.4373 4.07723 20.8768 3.54103L19.4943 4.98631C19.5327 5.02303 19.6348 5.14628 19.6348 5.54297H21.6348ZM20.8768 3.54103C20.3399 3.02754 19.6427 2.83398 18.9258 2.83398V4.83398C19.2896 4.83398 19.4322 4.92689 19.4943 4.98631L20.8768 3.54103ZM18.9258 2.83398H16.4551V4.83398H18.9258V2.83398ZM16.4551 2.83398C16.4002 2.83398 16.5434 2.82063 16.6951 2.96988C16.8497 3.12203 16.8398 3.27211 16.8398 3.22852H14.8398C14.8398 3.58857 14.9325 4.04138 15.2922 4.39536C15.649 4.74643 16.0998 4.83398 16.4551 4.83398V2.83398ZM16.8398 3.22852C16.8398 3.19244 16.8473 3.3471 16.6893 3.50016C16.5372 3.64741 16.3962 3.63281 16.4551 3.63281V1.63281C16.1038 1.63281 15.6552 1.7175 15.298 2.06332C14.9349 2.41495 14.8398 2.86746 14.8398 3.22852H16.8398ZM16.4551 3.63281H18.9551V1.63281H16.4551V3.63281ZM18.9551 3.63281C19.7557 3.63281 20.1769 3.83334 20.4062 4.06258L21.8204 2.64836C21.0861 1.91406 20.0685 1.63281 18.9551 1.63281V3.63281ZM20.411 4.06737C20.6385 4.29183 20.8359 4.69941 20.8359 5.47461H22.8359C22.8359 4.37481 22.5516 3.36963 21.8156 2.64357L20.411 4.06737ZM20.8359 5.47461V7.98438H22.8359V5.47461H20.8359ZM20.8359 7.98438C20.8359 8.0393 20.8226 7.89603 20.9718 7.74437C21.124 7.58976 21.2741 7.59961 21.2305 7.59961V9.59961C21.5905 9.59961 22.0433 9.50692 22.3973 9.14723C22.7484 8.79049 22.8359 8.33961 22.8359 7.98438H20.8359ZM6.02539 20.3047C5.2336 20.3047 4.81446 20.1053 4.58406 19.8749L3.16985 21.2891C3.90299 22.0223 4.91614 22.3047 6.02539 22.3047V20.3047ZM4.57923 19.8701C4.35291 19.6469 4.1543 19.2372 4.1543 18.4531H2.1543C2.1543 19.5571 2.43746 20.5667 3.17467 21.2939L4.57923 19.8701ZM4.1543 18.4531V15.9531H2.1543V18.4531H4.1543ZM4.1543 15.9531C4.1543 15.8943 4.1689 16.0352 4.02164 16.1873C3.86858 16.3454 3.71392 16.3379 3.75 16.3379V14.3379C3.38894 14.3379 2.93643 14.4329 2.5848 14.7961C2.23898 15.1532 2.1543 15.6018 2.1543 15.9531H4.1543ZM3.75 16.3379C3.79359 16.3379 3.64352 16.3477 3.49136 16.1931C3.34211 16.0415 3.35547 15.8982 3.35547 15.9531H5.35547C5.35547 15.5979 5.26791 15.147 4.91684 14.7903C4.56286 14.4306 4.11005 14.3379 3.75 14.3379V16.3379ZM3.35547 15.9531V18.3945H5.35547V15.9531H3.35547ZM3.35547 18.3945C3.35547 19.1189 3.53985 19.8427 4.07805 20.3809L5.49226 18.9667C5.45755 18.932 5.35547 18.8029 5.35547 18.3945H3.35547ZM4.08604 20.3888C4.62368 20.9145 5.33387 21.1035 6.05469 21.1035V19.1035C5.66874 19.1035 5.53257 19.006 5.48427 18.9588L4.08604 20.3888ZM6.05469 21.1035H8.53516V19.1035H6.05469V21.1035ZM8.53516 21.1035C8.59008 21.1035 8.44681 21.1169 8.29515 20.9676C8.14054 20.8155 8.15039 20.6654 8.15039 20.709H10.1504C10.1504 20.3489 10.0577 19.8961 9.69801 19.5421C9.34128 19.1911 8.89039 19.1035 8.53516 19.1035V21.1035ZM8.15039 20.709C8.15039 20.7451 8.14289 20.5904 8.30097 20.4373C8.45305 20.2901 8.59403 20.3047 8.53516 20.3047V22.3047C8.88644 22.3047 9.33503 22.22 9.69219 21.8742C10.0554 21.5226 10.1504 21.07 10.1504 20.709H8.15039ZM8.53516 20.3047H6.02539V22.3047H8.53516V20.3047ZM16.4551 20.3047C16.3962 20.3047 16.5372 20.2901 16.6893 20.4373C16.8473 20.5904 16.8398 20.7451 16.8398 20.709H14.8398C14.8398 21.07 14.9349 21.5226 15.298 21.8742C15.6552 22.22 16.1038 22.3047 16.4551 22.3047V20.3047ZM16.8398 20.709C16.8398 20.6654 16.8497 20.8155 16.6951 20.9676C16.5434 21.1169 16.4002 21.1035 16.4551 21.1035V19.1035C16.0998 19.1035 15.649 19.1911 15.2922 19.5421C14.9325 19.8961 14.8398 20.3489 14.8398 20.709H16.8398ZM16.4551 21.1035H18.9258V19.1035H16.4551V21.1035ZM18.9258 21.1035C19.6427 21.1035 20.3399 20.91 20.8768 20.3965L19.4943 18.9512C19.4322 19.0106 19.2896 19.1035 18.9258 19.1035V21.1035ZM20.8768 20.3965C21.4373 19.8603 21.6348 19.1307 21.6348 18.3945H19.6348C19.6348 18.7912 19.5327 18.9145 19.4943 18.9512L20.8768 20.3965ZM21.6348 18.3945V15.9531H19.6348V18.3945H21.6348ZM21.6348 15.9531C21.6348 15.8943 21.6494 16.0352 21.5021 16.1873C21.349 16.3454 21.1944 16.3379 21.2305 16.3379V14.3379C20.8694 14.3379 20.4169 14.4329 20.0653 14.7961C19.7194 15.1532 19.6348 15.6018 19.6348 15.9531H21.6348ZM21.2305 16.3379C21.2741 16.3379 21.124 16.3477 20.9718 16.1931C20.8226 16.0415 20.8359 15.8982 20.8359 15.9531H22.8359C22.8359 15.5979 22.7484 15.147 22.3973 14.7903C22.0433 14.4306 21.5905 14.3379 21.2305 14.3379V16.3379ZM20.8359 15.9531V18.4531H22.8359V15.9531H20.8359ZM20.8359 18.4531C20.8359 19.2372 20.6373 19.6469 20.411 19.8701L21.8156 21.2939C22.5528 20.5667 22.8359 19.5571 22.8359 18.4531H20.8359ZM20.4062 19.8749C20.1769 20.1042 19.7557 20.3047 18.9551 20.3047V22.3047C20.0685 22.3047 21.0861 22.0234 21.8204 21.2891L20.4062 19.8749ZM18.9551 20.3047H16.4551V22.3047H18.9551V20.3047Z" fill="#F0F8FF" mask="url(#path-2-inside-1_540_9315)"/>
<path d="M10.5181 17.0891C10.3892 17.0891 10.2889 17.0515 10.2173 16.9763C10.1457 16.9011 10.1099 16.7973 10.1099 16.6648V7.34058C10.1099 7.20809 10.1457 7.10425 10.2173 7.02905C10.2889 6.95028 10.3892 6.91089 10.5181 6.91089C10.6398 6.91089 10.7365 6.95028 10.8081 7.02905C10.8833 7.10425 10.9209 7.20809 10.9209 7.34058V16.6648C10.9209 16.7973 10.8833 16.9011 10.8081 16.9763C10.7365 17.0515 10.6398 17.0891 10.5181 17.0891ZM14.4551 17.0891C14.3262 17.0891 14.2259 17.0515 14.1543 16.9763C14.0827 16.9011 14.0469 16.7973 14.0469 16.6648V7.34058C14.0469 7.20809 14.0827 7.10425 14.1543 7.02905C14.2259 6.95028 14.3262 6.91089 14.4551 6.91089C14.5768 6.91089 14.6735 6.95028 14.7451 7.02905C14.8203 7.10425 14.8579 7.20809 14.8579 7.34058V16.6648C14.8579 16.7973 14.8203 16.9011 14.7451 16.9763C14.6735 17.0515 14.5768 17.0891 14.4551 17.0891ZM7.73584 14.3337C7.60335 14.3337 7.49772 14.2979 7.41895 14.2263C7.34375 14.1511 7.30615 14.0509 7.30615 13.9255C7.30615 13.8002 7.34375 13.7017 7.41895 13.6301C7.49772 13.5585 7.60335 13.5227 7.73584 13.5227H17.2642C17.3966 13.5227 17.5005 13.5585 17.5757 13.6301C17.6545 13.7017 17.6938 13.8002 17.6938 13.9255C17.6938 14.0509 17.6545 14.1511 17.5757 14.2263C17.5005 14.2979 17.3966 14.3337 17.2642 14.3337H7.73584ZM7.73584 10.4988C7.60335 10.4988 7.49772 10.463 7.41895 10.3914C7.34375 10.3197 7.30615 10.2213 7.30615 10.0959C7.30615 9.96704 7.34375 9.86678 7.41895 9.79517C7.49772 9.72355 7.60335 9.68774 7.73584 9.68774H17.2642C17.3966 9.68774 17.5005 9.72355 17.5757 9.79517C17.6545 9.86678 17.6938 9.96704 17.6938 10.0959C17.6938 10.2213 17.6545 10.3197 17.5757 10.3914C17.5005 10.463 17.3966 10.4988 17.2642 10.4988H7.73584Z" fill="#F0F8FF"/>
</svg>
