<svg width="33" height="32" viewBox="0 0 33 32" fill="none" xmlns="http://www.w3.org/2000/svg">
<mask id="path-1-inside-1_540_9352" fill="white">
<path d="M4.25 11.4395C3.69401 11.4395 3.41602 11.1523 3.41602 10.5781V7.06445C3.41602 5.74284 3.75326 4.74935 4.42773 4.08398C5.10221 3.41862 6.10482 3.08594 7.43555 3.08594H10.9492C11.5234 3.08594 11.8105 3.36393 11.8105 3.91992C11.8105 4.48503 11.5234 4.76758 10.9492 4.76758H7.47656C6.70182 4.76758 6.10938 4.9681 5.69922 5.36914C5.29818 5.77018 5.09766 6.36719 5.09766 7.16016V10.5781C5.09766 11.1523 4.8151 11.4395 4.25 11.4395ZM28.7227 11.4395C28.1667 11.4395 27.8887 11.1523 27.8887 10.5781V7.16016C27.8887 6.36719 27.679 5.77018 27.2598 5.36914C26.8405 4.9681 26.2526 4.76758 25.4961 4.76758H22.0371C21.4629 4.76758 21.1758 4.48503 21.1758 3.91992C21.1758 3.36393 21.4629 3.08594 22.0371 3.08594H25.5371C26.877 3.08594 27.8841 3.42318 28.5586 4.09766C29.2331 4.76302 29.5703 5.75195 29.5703 7.06445V10.5781C29.5703 11.1523 29.2878 11.4395 28.7227 11.4395ZM7.43555 29.2266C6.10482 29.2266 5.10221 28.8893 4.42773 28.2148C3.75326 27.5495 3.41602 26.556 3.41602 25.2344V21.7344C3.41602 21.1602 3.69401 20.873 4.25 20.873C4.8151 20.873 5.09766 21.1602 5.09766 21.7344V25.1523C5.09766 25.9453 5.29818 26.5423 5.69922 26.9434C6.10938 27.3444 6.70182 27.5449 7.47656 27.5449H10.9492C11.5234 27.5449 11.8105 27.8275 11.8105 28.3926C11.8105 28.9486 11.5234 29.2266 10.9492 29.2266H7.43555ZM22.0371 29.2266C21.4629 29.2266 21.1758 28.9486 21.1758 28.3926C21.1758 27.8275 21.4629 27.5449 22.0371 27.5449H25.4961C26.2526 27.5449 26.8405 27.3444 27.2598 26.9434C27.679 26.5423 27.8887 25.9453 27.8887 25.1523V21.7344C27.8887 21.1602 28.1667 20.873 28.7227 20.873C29.2878 20.873 29.5703 21.1602 29.5703 21.7344V25.2344C29.5703 26.556 29.2331 27.5495 28.5586 28.2148C27.8841 28.8893 26.877 29.2266 25.5371 29.2266H22.0371Z"/>
</mask>
<path d="M4.25 11.4395C3.69401 11.4395 3.41602 11.1523 3.41602 10.5781V7.06445C3.41602 5.74284 3.75326 4.74935 4.42773 4.08398C5.10221 3.41862 6.10482 3.08594 7.43555 3.08594H10.9492C11.5234 3.08594 11.8105 3.36393 11.8105 3.91992C11.8105 4.48503 11.5234 4.76758 10.9492 4.76758H7.47656C6.70182 4.76758 6.10938 4.9681 5.69922 5.36914C5.29818 5.77018 5.09766 6.36719 5.09766 7.16016V10.5781C5.09766 11.1523 4.8151 11.4395 4.25 11.4395ZM28.7227 11.4395C28.1667 11.4395 27.8887 11.1523 27.8887 10.5781V7.16016C27.8887 6.36719 27.679 5.77018 27.2598 5.36914C26.8405 4.9681 26.2526 4.76758 25.4961 4.76758H22.0371C21.4629 4.76758 21.1758 4.48503 21.1758 3.91992C21.1758 3.36393 21.4629 3.08594 22.0371 3.08594H25.5371C26.877 3.08594 27.8841 3.42318 28.5586 4.09766C29.2331 4.76302 29.5703 5.75195 29.5703 7.06445V10.5781C29.5703 11.1523 29.2878 11.4395 28.7227 11.4395ZM7.43555 29.2266C6.10482 29.2266 5.10221 28.8893 4.42773 28.2148C3.75326 27.5495 3.41602 26.556 3.41602 25.2344V21.7344C3.41602 21.1602 3.69401 20.873 4.25 20.873C4.8151 20.873 5.09766 21.1602 5.09766 21.7344V25.1523C5.09766 25.9453 5.29818 26.5423 5.69922 26.9434C6.10938 27.3444 6.70182 27.5449 7.47656 27.5449H10.9492C11.5234 27.5449 11.8105 27.8275 11.8105 28.3926C11.8105 28.9486 11.5234 29.2266 10.9492 29.2266H7.43555ZM22.0371 29.2266C21.4629 29.2266 21.1758 28.9486 21.1758 28.3926C21.1758 27.8275 21.4629 27.5449 22.0371 27.5449H25.4961C26.2526 27.5449 26.8405 27.3444 27.2598 26.9434C27.679 26.5423 27.8887 25.9453 27.8887 25.1523V21.7344C27.8887 21.1602 28.1667 20.873 28.7227 20.873C29.2878 20.873 29.5703 21.1602 29.5703 21.7344V25.2344C29.5703 26.556 29.2331 27.5495 28.5586 28.2148C27.8841 28.8893 26.877 29.2266 25.5371 29.2266H22.0371Z" fill="#3DCFFF"/>
<path d="M5.69922 5.36914L5.00006 4.65409L4.99211 4.66203L5.69922 5.36914ZM28.5586 4.09766L27.8515 4.80478L27.8563 4.80956L28.5586 4.09766ZM4.42773 28.2148L5.13486 27.5077L5.13001 27.5029L4.42773 28.2148ZM5.69922 26.9434L4.99207 27.6505L5.0001 27.6584L5.69922 26.9434ZM28.5586 28.2148L27.8563 27.5029L27.8515 27.5077L28.5586 28.2148ZM4.25 10.4395C4.19419 10.4395 4.18692 10.4319 4.21064 10.4401C4.23956 10.45 4.29199 10.4759 4.34293 10.5285C4.3932 10.5804 4.41381 10.6292 4.4198 10.6478C4.42435 10.6619 4.41602 10.6441 4.41602 10.5781H2.41602C2.41602 11.0114 2.52056 11.5216 2.90609 11.9197C3.29744 12.3239 3.80952 12.4395 4.25 12.4395V10.4395ZM4.41602 10.5781V7.06445H2.41602V10.5781H4.41602ZM4.41602 7.06445C4.41602 5.90279 4.71098 5.20926 5.13001 4.79588L3.72545 3.37208C2.79553 4.28944 2.41602 5.58289 2.41602 7.06445H4.41602ZM5.13001 4.79588C5.55265 4.37896 6.26011 4.08594 7.43555 4.08594V2.08594C5.94953 2.08594 4.65177 2.45828 3.72545 3.37208L5.13001 4.79588ZM7.43555 4.08594H10.9492V2.08594H7.43555V4.08594ZM10.9492 4.08594C11.0152 4.08594 11.033 4.09427 11.0189 4.08972C11.0003 4.08373 10.9515 4.06312 10.8996 4.01285C10.847 3.96191 10.8211 3.90948 10.8112 3.88057C10.803 3.85684 10.8105 3.86411 10.8105 3.91992H12.8105C12.8105 3.47944 12.695 2.96736 12.2908 2.57602C11.8926 2.19048 11.3825 2.08594 10.9492 2.08594V4.08594ZM10.8105 3.91992C10.8105 3.97945 10.8026 3.99041 10.8096 3.96996C10.8182 3.9445 10.8423 3.89362 10.8938 3.84292C10.945 3.79257 10.994 3.77108 11.0144 3.76442C11.03 3.75928 11.0138 3.76758 10.9492 3.76758V5.76758C11.3865 5.76758 11.8989 5.65984 12.2966 5.2684C12.6973 4.87406 12.8105 4.36071 12.8105 3.91992H10.8105ZM10.9492 3.76758H7.47656V5.76758H10.9492V3.76758ZM7.47656 3.76758C6.53439 3.76758 5.65493 4.01386 5.0001 4.65413L6.39834 6.08415C6.56382 5.92234 6.86926 5.76758 7.47656 5.76758V3.76758ZM4.99211 4.66203C4.33933 5.31482 4.09766 6.20919 4.09766 7.16016H6.09766C6.09766 6.52518 6.25703 6.22555 6.40633 6.07625L4.99211 4.66203ZM4.09766 7.16016V10.5781H6.09766V7.16016H4.09766ZM4.09766 10.5781C4.09766 10.6427 4.08936 10.6589 4.0945 10.6433C4.10116 10.6229 4.12264 10.5739 4.173 10.5227C4.22369 10.4712 4.27458 10.4471 4.30004 10.4385C4.32049 10.4315 4.30953 10.4395 4.25 10.4395V12.4395C4.69078 12.4395 5.20414 12.3263 5.59848 11.9255C5.98992 11.5278 6.09766 11.0154 6.09766 10.5781H4.09766ZM28.7227 10.4395C28.6668 10.4395 28.6596 10.4319 28.6833 10.4401C28.7122 10.45 28.7646 10.4759 28.8156 10.5285C28.8659 10.5804 28.8865 10.6292 28.8925 10.6478C28.897 10.6619 28.8887 10.6441 28.8887 10.5781H26.8887C26.8887 11.0114 26.9932 11.5216 27.3787 11.9197C27.7701 12.3239 28.2822 12.4395 28.7227 12.4395V10.4395ZM28.8887 10.5781V7.16016H26.8887V10.5781H28.8887ZM28.8887 7.16016C28.8887 6.19747 28.6314 5.29728 27.951 4.6465L26.5685 6.09178C26.7267 6.24308 26.8887 6.53691 26.8887 7.16016H28.8887ZM27.951 4.6465C27.2944 4.01842 26.4292 3.76758 25.4961 3.76758V5.76758C26.076 5.76758 26.3866 5.91778 26.5685 6.09178L27.951 4.6465ZM25.4961 3.76758H22.0371V5.76758H25.4961V3.76758ZM22.0371 3.76758C21.9725 3.76758 21.9563 3.75928 21.972 3.76442C21.9923 3.77108 22.0414 3.79257 22.0925 3.84292C22.1441 3.89362 22.1681 3.9445 22.1768 3.96996C22.1837 3.99041 22.1758 3.97945 22.1758 3.91992H20.1758C20.1758 4.36071 20.289 4.87406 20.6897 5.2684C21.0874 5.65984 21.5998 5.76758 22.0371 5.76758V3.76758ZM22.1758 3.91992C22.1758 3.86411 22.1833 3.85684 22.1752 3.88057C22.1652 3.90948 22.1393 3.96191 22.0867 4.01285C22.0348 4.06312 21.986 4.08373 21.9674 4.08972C21.9533 4.09427 21.9712 4.08594 22.0371 4.08594V2.08594C21.6038 2.08594 21.0937 2.19048 20.6955 2.57602C20.2913 2.96736 20.1758 3.47944 20.1758 3.91992H22.1758ZM22.0371 4.08594H25.5371V2.08594H22.0371V4.08594ZM25.5371 4.08594C26.7205 4.08594 27.4295 4.38282 27.8515 4.80476L29.2657 3.39055C28.3387 2.46354 27.0334 2.08594 25.5371 2.08594V4.08594ZM27.8563 4.80956C28.2766 5.22412 28.5703 5.91426 28.5703 7.06445H30.5703C30.5703 5.58965 30.1896 4.30192 29.2609 3.38576L27.8563 4.80956ZM28.5703 7.06445V10.5781H30.5703V7.06445H28.5703ZM28.5703 10.5781C28.5703 10.6427 28.562 10.6589 28.5672 10.6433C28.5738 10.6229 28.5953 10.5739 28.6457 10.5227C28.6964 10.4712 28.7472 10.4471 28.7727 10.4385C28.7931 10.4315 28.7822 10.4395 28.7227 10.4395V12.4395C29.1634 12.4395 29.6768 12.3263 30.0711 11.9255C30.4626 11.5278 30.5703 11.0154 30.5703 10.5781H28.5703ZM7.43555 28.2266C6.26355 28.2266 5.55795 27.9308 5.13484 27.5077L3.72063 28.922C4.64648 29.8478 5.94609 30.2266 7.43555 30.2266V28.2266ZM5.13001 27.5029C4.71098 27.0896 4.41602 26.396 4.41602 25.2344H2.41602C2.41602 26.7159 2.79553 28.0094 3.72545 28.9267L5.13001 27.5029ZM4.41602 25.2344V21.7344H2.41602V25.2344H4.41602ZM4.41602 21.7344C4.41602 21.6684 4.42435 21.6506 4.4198 21.6647C4.41381 21.6833 4.3932 21.7321 4.34293 21.784C4.29199 21.8366 4.23956 21.8625 4.21064 21.8724C4.18692 21.8806 4.19419 21.873 4.25 21.873V19.873C3.80952 19.873 3.29744 19.9886 2.90609 20.3928C2.52056 20.7909 2.41602 21.3011 2.41602 21.7344H4.41602ZM4.25 21.873C4.30953 21.873 4.32049 21.881 4.30004 21.874C4.27458 21.8654 4.22369 21.8413 4.173 21.7898C4.12264 21.7386 4.10116 21.6896 4.0945 21.6692C4.08936 21.6536 4.09766 21.6698 4.09766 21.7344H6.09766C6.09766 21.2971 5.98992 20.7847 5.59848 20.387C5.20414 19.9862 4.69078 19.873 4.25 19.873V21.873ZM4.09766 21.7344V25.1523H6.09766V21.7344H4.09766ZM4.09766 25.1523C4.09766 26.1033 4.33933 26.9977 4.99211 27.6505L6.40633 26.2363C6.25703 26.087 6.09766 25.7873 6.09766 25.1523H4.09766ZM5.0001 27.6584C5.65493 28.2986 6.53439 28.5449 7.47656 28.5449V26.5449C6.86926 26.5449 6.56382 26.3902 6.39834 26.2284L5.0001 27.6584ZM7.47656 28.5449H10.9492V26.5449H7.47656V28.5449ZM10.9492 28.5449C11.0138 28.5449 11.03 28.5532 11.0144 28.5481C10.994 28.5414 10.945 28.5199 10.8938 28.4696C10.8423 28.4189 10.8182 28.368 10.8096 28.3425C10.8026 28.3221 10.8105 28.333 10.8105 28.3926H12.8105C12.8105 27.9518 12.6973 27.4384 12.2966 27.0441C11.8989 26.6527 11.3865 26.5449 10.9492 26.5449V28.5449ZM10.8105 28.3926C10.8105 28.4484 10.803 28.4557 10.8112 28.4319C10.8211 28.403 10.847 28.3506 10.8996 28.2996C10.9515 28.2494 11.0003 28.2288 11.0189 28.2228C11.033 28.2182 11.0152 28.2266 10.9492 28.2266V30.2266C11.3825 30.2266 11.8926 30.122 12.2908 29.7365C12.695 29.3451 12.8105 28.8331 12.8105 28.3926H10.8105ZM10.9492 28.2266H7.43555V30.2266H10.9492V28.2266ZM22.0371 28.2266C21.9712 28.2266 21.9533 28.2182 21.9674 28.2228C21.986 28.2288 22.0348 28.2494 22.0867 28.2996C22.1393 28.3506 22.1652 28.403 22.1752 28.4319C22.1833 28.4557 22.1758 28.4484 22.1758 28.3926H20.1758C20.1758 28.8331 20.2913 29.3451 20.6955 29.7365C21.0937 30.122 21.6038 30.2266 22.0371 30.2266V28.2266ZM22.1758 28.3926C22.1758 28.333 22.1837 28.3221 22.1768 28.3425C22.1681 28.368 22.1441 28.4189 22.0925 28.4696C22.0414 28.5199 21.9923 28.5414 21.972 28.5481C21.9563 28.5532 21.9725 28.5449 22.0371 28.5449V26.5449C21.5998 26.5449 21.0874 26.6527 20.6897 27.0441C20.289 27.4384 20.1758 27.9518 20.1758 28.3926H22.1758ZM22.0371 28.5449H25.4961V26.5449H22.0371V28.5449ZM25.4961 28.5449C26.4292 28.5449 27.2944 28.2941 27.951 27.666L26.5685 26.2207C26.3866 26.3947 26.076 26.5449 25.4961 26.5449V28.5449ZM27.951 27.666C28.6314 27.0152 28.8887 26.115 28.8887 25.1523H26.8887C26.8887 25.7756 26.7267 26.0694 26.5685 26.2207L27.951 27.666ZM28.8887 25.1523V21.7344H26.8887V25.1523H28.8887ZM28.8887 21.7344C28.8887 21.6684 28.897 21.6506 28.8925 21.6647C28.8865 21.6833 28.8659 21.7321 28.8156 21.784C28.7646 21.8366 28.7122 21.8625 28.6833 21.8724C28.6596 21.8806 28.6668 21.873 28.7227 21.873V19.873C28.2822 19.873 27.7701 19.9886 27.3787 20.3928C26.9932 20.7909 26.8887 21.3011 26.8887 21.7344H28.8887ZM28.7227 21.873C28.7822 21.873 28.7931 21.881 28.7727 21.874C28.7472 21.8654 28.6964 21.8413 28.6457 21.7898C28.5953 21.7386 28.5738 21.6896 28.5672 21.6692C28.562 21.6536 28.5703 21.6698 28.5703 21.7344H30.5703C30.5703 21.2971 30.4626 20.7847 30.0711 20.387C29.6768 19.9862 29.1634 19.873 28.7227 19.873V21.873ZM28.5703 21.7344V25.2344H30.5703V21.7344H28.5703ZM28.5703 25.2344C28.5703 26.396 28.2753 27.0896 27.8563 27.5029L29.2609 28.9267C30.1908 28.0094 30.5703 26.7159 30.5703 25.2344H28.5703ZM27.8515 27.5077C27.4295 27.9297 26.7205 28.2266 25.5371 28.2266V30.2266C27.0334 30.2266 28.3387 29.849 29.2657 28.922L27.8515 27.5077ZM25.5371 28.2266H22.0371V30.2266H25.5371V28.2266Z" fill="#3DCFFF" mask="url(#path-1-inside-1_540_9352)"/>
<path d="M16.5 23.7578C15.4583 23.7578 14.4792 23.5573 13.5625 23.1562C12.651 22.7604 11.8464 22.2135 11.1484 21.5156C10.4505 20.8177 9.90104 20.013 9.5 19.1016C9.10417 18.1849 8.90625 17.2057 8.90625 16.1641C8.90625 15.1276 9.10417 14.151 9.5 13.2344C9.89583 12.3177 10.4427 11.5104 11.1406 10.8125C11.8438 10.1146 12.651 9.56771 13.5625 9.17188C14.4792 8.77604 15.4557 8.57812 16.4922 8.57812C17.5286 8.57812 18.5052 8.77604 19.4219 9.17188C20.3385 9.56771 21.1458 10.1146 21.8438 10.8125C22.5417 11.5104 23.0885 12.3177 23.4844 13.2344C23.8854 14.151 24.0859 15.1276 24.0859 16.1641C24.0859 17.2057 23.888 18.1849 23.4922 19.1016C23.0964 20.013 22.5495 20.8177 21.8516 21.5156C21.1536 22.2135 20.3464 22.7604 19.4297 23.1562C18.513 23.5573 17.5365 23.7578 16.5 23.7578ZM16.5 22.3672C17.3594 22.3672 18.1641 22.2057 18.9141 21.8828C19.6641 21.5651 20.3229 21.1224 20.8906 20.5547C21.4583 19.987 21.901 19.3281 22.2188 18.5781C22.5365 17.8281 22.6953 17.0234 22.6953 16.1641C22.6953 15.3047 22.5365 14.5 22.2188 13.75C21.901 13 21.4583 12.3411 20.8906 11.7734C20.3229 11.2057 19.6615 10.763 18.9062 10.4453C18.1562 10.1276 17.3516 9.96875 16.4922 9.96875C15.6328 9.96875 14.8281 10.1276 14.0781 10.4453C13.3333 10.763 12.6771 11.2057 12.1094 11.7734C11.5417 12.3411 11.099 13 10.7812 13.75C10.4635 14.5 10.3047 15.3047 10.3047 16.1641C10.3047 17.0234 10.4635 17.8281 10.7812 18.5781C11.099 19.3281 11.5417 19.987 12.1094 20.5547C12.6771 21.1224 13.3359 21.5651 14.0859 21.8828C14.8359 22.2057 15.6406 22.3672 16.5 22.3672Z" fill="#3DCFFF"/>
</svg>
