<svg width="32" height="32" viewBox="0 0 32 32" fill="none" xmlns="http://www.w3.org/2000/svg">
<path d="M3.75 11.4395C3.19401 11.4395 2.91602 11.1523 2.91602 10.5781V7.06445C2.91602 5.74284 3.25326 4.74935 3.92773 4.08398C4.60221 3.41862 5.60482 3.08594 6.93555 3.08594H10.4492C11.0234 3.08594 11.3105 3.36393 11.3105 3.91992C11.3105 4.48503 11.0234 4.76758 10.4492 4.76758H6.97656C6.20182 4.76758 5.60938 4.9681 5.19922 5.36914C4.79818 5.77018 4.59766 6.36719 4.59766 7.16016V10.5781C4.59766 11.1523 4.3151 11.4395 3.75 11.4395ZM28.2227 11.4395C27.6667 11.4395 27.3887 11.1523 27.3887 10.5781V7.16016C27.3887 6.36719 27.179 5.77018 26.7598 5.36914C26.3405 4.9681 25.7526 4.76758 24.9961 4.76758H21.5371C20.9629 4.76758 20.6758 4.48503 20.6758 3.91992C20.6758 3.36393 20.9629 3.08594 21.5371 3.08594H25.0371C26.377 3.08594 27.3841 3.42318 28.0586 4.09766C28.7331 4.76302 29.0703 5.75195 29.0703 7.06445V10.5781C29.0703 11.1523 28.7878 11.4395 28.2227 11.4395ZM6.93555 29.2266C5.60482 29.2266 4.60221 28.8893 3.92773 28.2148C3.25326 27.5495 2.91602 26.556 2.91602 25.2344V21.7344C2.91602 21.1602 3.19401 20.873 3.75 20.873C4.3151 20.873 4.59766 21.1602 4.59766 21.7344V25.1523C4.59766 25.9453 4.79818 26.5423 5.19922 26.9434C5.60938 27.3444 6.20182 27.5449 6.97656 27.5449H10.4492C11.0234 27.5449 11.3105 27.8275 11.3105 28.3926C11.3105 28.9486 11.0234 29.2266 10.4492 29.2266H6.93555ZM21.5371 29.2266C20.9629 29.2266 20.6758 28.9486 20.6758 28.3926C20.6758 27.8275 20.9629 27.5449 21.5371 27.5449H24.9961C25.7526 27.5449 26.3405 27.3444 26.7598 26.9434C27.179 26.5423 27.3887 25.9453 27.3887 25.1523V21.7344C27.3887 21.1602 27.6667 20.873 28.2227 20.873C28.7878 20.873 29.0703 21.1602 29.0703 21.7344V25.2344C29.0703 26.556 28.7331 27.5495 28.0586 28.2148C27.3841 28.8893 26.377 29.2266 25.0371 29.2266H21.5371Z" fill="#3DCFFF"/>
<path d="M16 23.7578C14.9583 23.7578 13.9792 23.5573 13.0625 23.1562C12.151 22.7604 11.3464 22.2135 10.6484 21.5156C9.95052 20.8177 9.40104 20.013 9 19.1016C8.60417 18.1849 8.40625 17.2057 8.40625 16.1641C8.40625 15.1276 8.60417 14.151 9 13.2344C9.39583 12.3177 9.94271 11.5104 10.6406 10.8125C11.3438 10.1146 12.151 9.56771 13.0625 9.17188C13.9792 8.77604 14.9557 8.57812 15.9922 8.57812C17.0286 8.57812 18.0052 8.77604 18.9219 9.17188C19.8385 9.56771 20.6458 10.1146 21.3438 10.8125C22.0417 11.5104 22.5885 12.3177 22.9844 13.2344C23.3854 14.151 23.5859 15.1276 23.5859 16.1641C23.5859 17.2057 23.388 18.1849 22.9922 19.1016C22.5964 20.013 22.0495 20.8177 21.3516 21.5156C20.6536 22.2135 19.8464 22.7604 18.9297 23.1562C18.013 23.5573 17.0365 23.7578 16 23.7578ZM16 22.3672C16.8594 22.3672 17.6641 22.2057 18.4141 21.8828C19.1641 21.5651 19.8229 21.1224 20.3906 20.5547C20.9583 19.987 21.401 19.3281 21.7188 18.5781C22.0365 17.8281 22.1953 17.0234 22.1953 16.1641C22.1953 15.3047 22.0365 14.5 21.7188 13.75C21.401 13 20.9583 12.3411 20.3906 11.7734C19.8229 11.2057 19.1615 10.763 18.4062 10.4453C17.6562 10.1276 16.8516 9.96875 15.9922 9.96875C15.1328 9.96875 14.3281 10.1276 13.5781 10.4453C12.8333 10.763 12.1771 11.2057 11.6094 11.7734C11.0417 12.3411 10.599 13 10.2812 13.75C9.96354 14.5 9.80469 15.3047 9.80469 16.1641C9.80469 17.0234 9.96354 17.8281 10.2812 18.5781C10.599 19.3281 11.0417 19.987 11.6094 20.5547C12.1771 21.1224 12.8359 21.5651 13.5859 21.8828C14.3359 22.2057 15.1406 22.3672 16 22.3672Z" fill="#3DCFFF"/>
</svg>
