<svg width="33" height="32" viewBox="0 0 33 32" fill="none" xmlns="http://www.w3.org/2000/svg">
<path fill-rule="evenodd" clip-rule="evenodd" d="M2.92285 10.4219C2.92285 10.9961 3.20085 11.2832 3.75684 11.2832C4.32194 11.2832 4.60449 10.9961 4.60449 10.4219V7.00391C4.60449 6.21094 4.80501 5.61393 5.20605 5.21289C5.61621 4.81185 6.20866 4.61133 6.9834 4.61133H10.4561C11.0303 4.61133 11.3174 4.32878 11.3174 3.76367C11.3174 3.20768 11.0303 2.92969 10.4561 2.92969H6.94238C5.61165 2.92969 4.60905 3.26237 3.93457 3.92773C3.26009 4.5931 2.92285 5.58659 2.92285 6.9082V10.4219ZM27.3955 10.4219C27.3955 10.9961 27.6735 11.2832 28.2295 11.2832C28.7946 11.2832 29.0771 10.9961 29.0771 10.4219V6.9082C29.0771 5.5957 28.7399 4.60677 28.0654 3.94141C27.391 3.26693 26.3838 2.92969 25.0439 2.92969H21.5439C20.9697 2.92969 20.6826 3.20768 20.6826 3.76367C20.6826 4.32878 20.9697 4.61133 21.5439 4.61133H25.0029C25.7594 4.61133 26.3473 4.81185 26.7666 5.21289C27.1859 5.61393 27.3955 6.21094 27.3955 7.00391V10.4219ZM3.93457 28.0586C4.60905 28.7331 5.61165 29.0703 6.94238 29.0703H10.4561C11.0303 29.0703 11.3174 28.7923 11.3174 28.2363C11.3174 27.6712 11.0303 27.3887 10.4561 27.3887H6.9834C6.20866 27.3887 5.61621 27.1882 5.20605 26.7871C4.80501 26.3861 4.60449 25.7891 4.60449 24.9961V21.5781C4.60449 21.0039 4.32194 20.7168 3.75684 20.7168C3.20085 20.7168 2.92285 21.0039 2.92285 21.5781V25.0781C2.92285 26.3997 3.26009 27.3932 3.93457 28.0586Z" fill="#F0F8FF"/>
<path d="M26.3389 21.0908C26.1278 21.1101 25.9399 21.2639 25.8896 21.4863L25.6123 22.7089L24.2568 24.2148C24.0913 24.3983 24 24.6367 24 24.8837V29.4999C24 30.0524 24.4475 30.4999 25 30.4999H29.0156C29.3861 30.4999 29.7216 30.2818 29.8721 29.9433L31.373 26.5654C31.4565 26.3784 31.5 26.1756 31.5 25.9706V25.4999C31.5 24.9499 31.05 24.4999 30.5 24.4999H27C27 24.4999 27.5 23.3146 27.5 22.4316C27.5 21.6251 26.9812 21.2721 26.5537 21.1181C26.4823 21.0922 26.4092 21.0843 26.3389 21.0908ZM22.25 24.4999C21.836 24.4999 21.5 24.8359 21.5 25.2499V29.7499C21.5 30.1639 21.836 30.4999 22.25 30.4999C22.664 30.4999 23 30.1639 23 29.7499V25.2499C23 24.8359 22.664 24.4999 22.25 24.4999Z" fill="#3DFFAF"/>
<g clip-path="url(#clip0_1684_3620)">
<path d="M15.4263 22.3011C19.7673 22.3011 23.0502 19.3306 23.9426 15.3338C24.051 14.8684 23.7514 14.5242 23.2669 14.5242L22.9928 15.1616C22.1259 18.8015 19.1745 21.3258 15.4263 21.3258C11.5634 21.3258 8.96892 18.9162 8.96892 15.4676C8.96892 12.682 10.945 10.6804 13.5586 10.6804C15.5793 10.6804 17.0199 11.9935 17.0199 13.8421C17.0199 15.372 16.0574 16.4812 14.706 16.4812C13.5649 16.4812 12.7745 15.729 12.7745 14.7664C12.7745 14.0015 13.2781 13.4214 13.992 13.4214C14.5657 13.4214 14.9036 13.7656 14.9036 14.2182C14.9036 14.5688 14.6996 14.8111 14.3936 14.8111C14.145 14.8111 14.0622 14.6899 13.992 14.5688C13.9283 14.4541 13.8327 14.384 13.6669 14.384C13.4693 14.384 13.2653 14.5433 13.2653 14.8366C13.2653 15.2509 13.6414 15.7927 14.3872 15.7927C15.2223 15.7927 15.8852 15.168 15.8852 14.2182C15.8852 13.2238 15.0566 12.4397 13.992 12.4397C12.7936 12.4397 11.7928 13.466 11.7928 14.7664C11.7928 16.2708 13.0231 17.4565 14.706 17.4565C17.0964 17.4565 17.9952 15.321 17.9952 13.8421C17.9952 11.4389 16.1339 9.70508 13.5586 9.70508C10.3904 9.70508 8 12.121 8 15.4676C8 19.4708 10.9896 22.3011 15.4263 22.3011Z" fill="#F0F8FF"/>
</g>
<defs>
<clipPath id="clip0_1684_3620">
<rect width="16" height="12.6024" fill="white" transform="translate(8 9.69873)"/>
</clipPath>
</defs>
</svg>
