<svg width="33" height="32" viewBox="0 0 33 32" fill="none" xmlns="http://www.w3.org/2000/svg">
<path d="M16 23.7578C14.9583 23.7578 13.9792 23.5573 13.0625 23.1562C12.151 22.7604 11.3464 22.2135 10.6484 21.5156C9.95052 20.8177 9.40104 20.013 9 19.1016C8.60417 18.1849 8.40625 17.2057 8.40625 16.1641C8.40625 15.1276 8.60417 14.151 9 13.2344C9.39583 12.3177 9.94271 11.5104 10.6406 10.8125C11.3438 10.1146 12.151 9.56771 13.0625 9.17188C13.9792 8.77604 14.9557 8.57812 15.9922 8.57812C17.0286 8.57812 18.0052 8.77604 18.9219 9.17188C19.8385 9.56771 20.6458 10.1146 21.3438 10.8125C22.0417 11.5104 22.5885 12.3177 22.9844 13.2344C23.3854 14.151 23.5859 15.1276 23.5859 16.1641C23.5859 17.2057 23.388 18.1849 22.9922 19.1016C22.5964 20.013 22.0495 20.8177 21.3516 21.5156C20.6536 22.2135 19.8464 22.7604 18.9297 23.1562C18.013 23.5573 17.0365 23.7578 16 23.7578ZM16 22.3672C16.8594 22.3672 17.6641 22.2057 18.4141 21.8828C19.1641 21.5651 19.8229 21.1224 20.3906 20.5547C20.9583 19.987 21.401 19.3281 21.7188 18.5781C22.0365 17.8281 22.1953 17.0234 22.1953 16.1641C22.1953 15.3047 22.0365 14.5 21.7188 13.75C21.401 13 20.9583 12.3411 20.3906 11.7734C19.8229 11.2057 19.1615 10.763 18.4062 10.4453C17.6562 10.1276 16.8516 9.96875 15.9922 9.96875C15.1328 9.96875 14.3281 10.1276 13.5781 10.4453C12.8333 10.763 12.1771 11.2057 11.6094 11.7734C11.0417 12.3411 10.599 13 10.2812 13.75C9.96354 14.5 9.80469 15.3047 9.80469 16.1641C9.80469 17.0234 9.96354 17.8281 10.2812 18.5781C10.599 19.3281 11.0417 19.987 11.6094 20.5547C12.1771 21.1224 12.8359 21.5651 13.5859 21.8828C14.3359 22.2057 15.1406 22.3672 16 22.3672Z" fill="#3DFFAF"/>
<path fill-rule="evenodd" clip-rule="evenodd" d="M2.92285 10.4922C2.92285 11.0664 3.20085 11.3535 3.75684 11.3535C4.32194 11.3535 4.60449 11.0664 4.60449 10.4922V7.07422C4.60449 6.28125 4.80501 5.68424 5.20605 5.2832C5.61621 4.88216 6.20866 4.68164 6.9834 4.68164H10.4561C11.0303 4.68164 11.3174 4.39909 11.3174 3.83398C11.3174 3.27799 11.0303 3 10.4561 3H6.94238C5.61165 3 4.60905 3.33268 3.93457 3.99805C3.26009 4.66341 2.92285 5.6569 2.92285 6.97852V10.4922ZM27.3955 10.4922C27.3955 11.0664 27.6735 11.3535 28.2295 11.3535C28.7946 11.3535 29.0771 11.0664 29.0771 10.4922V6.97852C29.0771 5.66602 28.7399 4.67708 28.0654 4.01172C27.391 3.33724 26.3838 3 25.0439 3H21.5439C20.9697 3 20.6826 3.27799 20.6826 3.83398C20.6826 4.39909 20.9697 4.68164 21.5439 4.68164H25.0029C25.7594 4.68164 26.3473 4.88216 26.7666 5.2832C27.1859 5.68424 27.3955 6.28125 27.3955 7.07422V10.4922ZM3.93457 28.1289C4.60905 28.8034 5.61165 29.1406 6.94238 29.1406H10.4561C11.0303 29.1406 11.3174 28.8626 11.3174 28.3066C11.3174 27.7415 11.0303 27.459 10.4561 27.459H6.9834C6.20866 27.459 5.61621 27.2585 5.20605 26.8574C4.80501 26.4564 4.60449 25.8594 4.60449 25.0664V21.6484C4.60449 21.0742 4.32194 20.7871 3.75684 20.7871C3.20085 20.7871 2.92285 21.0742 2.92285 21.6484V25.1484C2.92285 26.4701 3.26009 27.4635 3.93457 28.1289Z" fill="#3DFFAF"/>
<path d="M26.3389 21.0908C26.1278 21.1101 25.9399 21.2639 25.8896 21.4863L25.6123 22.7089L24.2568 24.2148C24.0913 24.3983 24 24.6367 24 24.8837V29.4999C24 30.0524 24.4475 30.4999 25 30.4999H29.0156C29.3861 30.4999 29.7216 30.2818 29.8721 29.9433L31.373 26.5654C31.4565 26.3784 31.5 26.1756 31.5 25.9706V25.4999C31.5 24.9499 31.05 24.4999 30.5 24.4999H27C27 24.4999 27.5 23.3146 27.5 22.4316C27.5 21.6251 26.9812 21.2721 26.5537 21.1181C26.4823 21.0922 26.4092 21.0843 26.3389 21.0908ZM22.25 24.4999C21.836 24.4999 21.5 24.8359 21.5 25.2499V29.7499C21.5 30.1639 21.836 30.4999 22.25 30.4999C22.664 30.4999 23 30.1639 23 29.7499V25.2499C23 24.8359 22.664 24.4999 22.25 24.4999Z" fill="#3DFFAF"/>
</svg>
