<svg width="26" height="25" viewBox="0 0 26 25" fill="none" xmlns="http://www.w3.org/2000/svg">
<rect x="4.35" y="3.8501" width="16.3" height="16.25" fill="#101720" fill-opacity="0.5"/>
<path d="M10.5181 17.0891C10.3892 17.0891 10.2889 17.0515 10.2173 16.9763C10.1457 16.9011 10.1099 16.7973 10.1099 16.6648V7.34058C10.1099 7.20809 10.1457 7.10425 10.2173 7.02905C10.2889 6.95028 10.3892 6.91089 10.5181 6.91089C10.6398 6.91089 10.7365 6.95028 10.8081 7.02905C10.8833 7.10425 10.9209 7.20809 10.9209 7.34058V16.6648C10.9209 16.7973 10.8833 16.9011 10.8081 16.9763C10.7365 17.0515 10.6398 17.0891 10.5181 17.0891ZM14.4551 17.0891C14.3262 17.0891 14.2259 17.0515 14.1543 16.9763C14.0827 16.9011 14.0469 16.7973 14.0469 16.6648V7.34058C14.0469 7.20809 14.0827 7.10425 14.1543 7.02905C14.2259 6.95028 14.3262 6.91089 14.4551 6.91089C14.5768 6.91089 14.6735 6.95028 14.7451 7.02905C14.8203 7.10425 14.8579 7.20809 14.8579 7.34058V16.6648C14.8579 16.7973 14.8203 16.9011 14.7451 16.9763C14.6735 17.0515 14.5768 17.0891 14.4551 17.0891ZM7.73584 14.3337C7.60335 14.3337 7.49772 14.2979 7.41895 14.2263C7.34375 14.1511 7.30615 14.0509 7.30615 13.9255C7.30615 13.8002 7.34375 13.7017 7.41895 13.6301C7.49772 13.5585 7.60335 13.5227 7.73584 13.5227H17.2642C17.3966 13.5227 17.5005 13.5585 17.5757 13.6301C17.6545 13.7017 17.6938 13.8002 17.6938 13.9255C17.6938 14.0509 17.6545 14.1511 17.5757 14.2263C17.5005 14.2979 17.3966 14.3337 17.2642 14.3337H7.73584ZM7.73584 10.4988C7.60335 10.4988 7.49772 10.463 7.41895 10.3914C7.34375 10.3197 7.30615 10.2213 7.30615 10.0959C7.30615 9.96704 7.34375 9.86678 7.41895 9.79517C7.49772 9.72355 7.60335 9.68774 7.73584 9.68774H17.2642C17.3966 9.68774 17.5005 9.72355 17.5757 9.79517C17.6545 9.86678 17.6938 9.96704 17.6938 10.0959C17.6938 10.2213 17.6545 10.3197 17.5757 10.3914C17.5005 10.463 17.3966 10.4988 17.2642 10.4988H7.73584Z" fill="#F0F8FF"/>
<path d="M21 24.5383C20.8958 24.5383 20.8047 24.5032 20.7266 24.4329C20.6484 24.3625 20.599 24.2714 20.5781 24.1594C20.513 23.7245 20.444 23.3495 20.3711 23.0344C20.3008 22.7193 20.2161 22.4524 20.1172 22.2336C20.0182 22.0149 19.8958 21.8326 19.75 21.6868C19.6042 21.5383 19.4232 21.4172 19.207 21.3235C18.9909 21.2297 18.7292 21.1503 18.4219 21.0852C18.1172 21.0201 17.7539 20.9589 17.332 20.9016C17.2174 20.886 17.1237 20.8391 17.0508 20.761C16.9779 20.6803 16.9414 20.5865 16.9414 20.4797C16.9414 20.3704 16.9779 20.2766 17.0508 20.1985C17.1263 20.1178 17.2214 20.0696 17.3359 20.054C17.8411 19.9967 18.2656 19.9303 18.6094 19.8547C18.9557 19.7766 19.2409 19.6711 19.4648 19.5383C19.6888 19.4029 19.8698 19.2206 20.0078 18.9915C20.1458 18.7623 20.2578 18.4706 20.3437 18.1165C20.4297 17.7597 20.5078 17.3209 20.5781 16.8C20.5964 16.6881 20.6445 16.5969 20.7227 16.5266C20.8008 16.4563 20.8932 16.4211 21 16.4211C21.1068 16.4211 21.1979 16.4563 21.2734 16.5266C21.3516 16.5943 21.3997 16.6842 21.418 16.7961C21.4987 17.317 21.5833 17.7545 21.6719 18.1086C21.7604 18.4628 21.8724 18.7532 22.0078 18.9797C22.1458 19.2063 22.3255 19.3873 22.5469 19.5227C22.7708 19.6555 23.0547 19.7623 23.3984 19.843C23.7422 19.9211 24.1654 19.9915 24.668 20.054C24.7799 20.0696 24.8724 20.1178 24.9453 20.1985C25.0208 20.2766 25.0586 20.3704 25.0586 20.4797C25.0586 20.5865 25.0208 20.6803 24.9453 20.761C24.8698 20.8417 24.7773 20.8886 24.668 20.9016C24.1628 20.9589 23.737 21.0266 23.3906 21.1047C23.0443 21.1803 22.7591 21.2857 22.5352 21.4211C22.3112 21.5566 22.1302 21.7389 21.9922 21.968C21.8542 22.1946 21.7422 22.4862 21.6562 22.843C21.5703 23.1972 21.4909 23.6347 21.418 24.1555C21.4023 24.2675 21.3555 24.3586 21.2773 24.429C21.1992 24.5019 21.1068 24.5383 21 24.5383Z" fill="#3DCFFF"/>
<mask id="path-4-inside-1_501_1647" fill="white">
<path fill-rule="evenodd" clip-rule="evenodd" d="M3.15918 7.98438C3.15918 8.39453 3.35775 8.59961 3.75488 8.59961C4.15853 8.59961 4.36035 8.39453 4.36035 7.98438V5.54297C4.36035 4.97656 4.50358 4.55013 4.79004 4.26367C5.08301 3.97721 5.50618 3.83398 6.05957 3.83398H8.54004C8.9502 3.83398 9.15527 3.63216 9.15527 3.22852C9.15527 2.83138 8.9502 2.63281 8.54004 2.63281H6.03027C5.07975 2.63281 4.36361 2.87044 3.88184 3.3457C3.40007 3.82096 3.15918 4.5306 3.15918 5.47461V7.98438ZM20.6396 7.98438C20.6396 8.39453 20.8382 8.59961 21.2354 8.59961C21.639 8.59961 21.8408 8.39453 21.8408 7.98438V5.47461C21.8408 4.53711 21.5999 3.83073 21.1182 3.35547C20.6364 2.8737 19.917 2.63281 18.96 2.63281H16.46C16.0498 2.63281 15.8447 2.83138 15.8447 3.22852C15.8447 3.63216 16.0498 3.83398 16.46 3.83398H18.9307C19.471 3.83398 19.891 3.97721 20.1904 4.26367C20.4899 4.55013 20.6396 4.97656 20.6396 5.54297V7.98438ZM3.88184 20.582C4.36361 21.0638 5.07975 21.3047 6.03027 21.3047H8.54004C8.9502 21.3047 9.15527 21.1061 9.15527 20.709C9.15527 20.3053 8.9502 20.1035 8.54004 20.1035H6.05957C5.50618 20.1035 5.08301 19.9603 4.79004 19.6738C4.50358 19.3874 4.36035 18.9609 4.36035 18.3945V15.9531C4.36035 15.543 4.15853 15.3379 3.75488 15.3379C3.35775 15.3379 3.15918 15.543 3.15918 15.9531V18.4531C3.15918 19.3971 3.40007 20.1068 3.88184 20.582Z"/>
</mask>
<path fill-rule="evenodd" clip-rule="evenodd" d="M3.15918 7.98438C3.15918 8.39453 3.35775 8.59961 3.75488 8.59961C4.15853 8.59961 4.36035 8.39453 4.36035 7.98438V5.54297C4.36035 4.97656 4.50358 4.55013 4.79004 4.26367C5.08301 3.97721 5.50618 3.83398 6.05957 3.83398H8.54004C8.9502 3.83398 9.15527 3.63216 9.15527 3.22852C9.15527 2.83138 8.9502 2.63281 8.54004 2.63281H6.03027C5.07975 2.63281 4.36361 2.87044 3.88184 3.3457C3.40007 3.82096 3.15918 4.5306 3.15918 5.47461V7.98438ZM20.6396 7.98438C20.6396 8.39453 20.8382 8.59961 21.2354 8.59961C21.639 8.59961 21.8408 8.39453 21.8408 7.98438V5.47461C21.8408 4.53711 21.5999 3.83073 21.1182 3.35547C20.6364 2.8737 19.917 2.63281 18.96 2.63281H16.46C16.0498 2.63281 15.8447 2.83138 15.8447 3.22852C15.8447 3.63216 16.0498 3.83398 16.46 3.83398H18.9307C19.471 3.83398 19.891 3.97721 20.1904 4.26367C20.4899 4.55013 20.6396 4.97656 20.6396 5.54297V7.98438ZM3.88184 20.582C4.36361 21.0638 5.07975 21.3047 6.03027 21.3047H8.54004C8.9502 21.3047 9.15527 21.1061 9.15527 20.709C9.15527 20.3053 8.9502 20.1035 8.54004 20.1035H6.05957C5.50618 20.1035 5.08301 19.9603 4.79004 19.6738C4.50358 19.3874 4.36035 18.9609 4.36035 18.3945V15.9531C4.36035 15.543 4.15853 15.3379 3.75488 15.3379C3.35775 15.3379 3.15918 15.543 3.15918 15.9531V18.4531C3.15918 19.3971 3.40007 20.1068 3.88184 20.582Z" fill="#3DCFFF"/>
<path d="M4.79004 4.26367L4.09088 3.54862L4.08293 3.55657L4.79004 4.26367ZM3.88184 3.3457L4.58412 4.0576L3.88184 3.3457ZM21.1182 3.35547L20.411 4.06259L20.4159 4.06737L21.1182 3.35547ZM3.88184 20.582L4.58896 19.8749L4.58412 19.8701L3.88184 20.582ZM4.79004 19.6738L4.08289 20.381L4.09092 20.3888L4.79004 19.6738ZM3.75488 7.59961C3.7188 7.59961 3.87346 7.59211 4.02652 7.75019C4.17378 7.90227 4.15918 8.04325 4.15918 7.98438H2.15918C2.15918 8.33566 2.24386 8.78425 2.58969 9.14141C2.94132 9.50457 3.39383 9.59961 3.75488 9.59961V7.59961ZM3.36035 7.98438C3.36035 8.0393 3.34699 7.89603 3.49624 7.74437C3.6484 7.58976 3.79847 7.59961 3.75488 7.59961V9.59961C4.11494 9.59961 4.56775 9.50692 4.92173 9.14723C5.2728 8.79049 5.36035 8.33961 5.36035 7.98438H3.36035ZM3.36035 5.54297V7.98438H5.36035V5.54297H3.36035ZM4.08293 3.55657C3.54473 4.09477 3.36035 4.81857 3.36035 5.54297H5.36035C5.36035 5.13456 5.46243 5.00549 5.49715 4.97078L4.08293 3.55657ZM6.05957 2.83398C5.33875 2.83398 4.62856 3.02297 4.09092 3.54867L5.48916 4.97868C5.53745 4.93145 5.67362 4.83398 6.05957 4.83398V2.83398ZM8.54004 2.83398H6.05957V4.83398H8.54004V2.83398ZM8.15527 3.22852C8.15527 3.27211 8.14543 3.12203 8.30004 2.96988C8.45169 2.82063 8.59496 2.83398 8.54004 2.83398V4.83398C8.89527 4.83398 9.34616 4.74643 9.70289 4.39536C10.0626 4.04138 10.1553 3.58857 10.1553 3.22852H8.15527ZM8.54004 3.63281C8.59891 3.63281 8.45794 3.64741 8.30585 3.50016C8.14777 3.3471 8.15527 3.19244 8.15527 3.22852H10.1553C10.1553 2.86746 10.0602 2.41495 9.69708 2.06332C9.33992 1.7175 8.89132 1.63281 8.54004 1.63281V3.63281ZM6.03027 3.63281H8.54004V1.63281H6.03027V3.63281ZM4.58412 4.0576C4.81405 3.83078 5.23504 3.63281 6.03027 3.63281V1.63281C4.92446 1.63281 3.91317 1.91011 3.17956 2.6338L4.58412 4.0576ZM4.15918 5.47461C4.15918 4.69055 4.35779 4.28087 4.58412 4.0576L3.17956 2.6338C2.44234 3.36105 2.15918 4.37065 2.15918 5.47461H4.15918ZM4.15918 7.98438V5.47461H2.15918V7.98438H4.15918ZM21.2354 7.59961C21.1993 7.59961 21.3539 7.59211 21.507 7.75019C21.6542 7.90227 21.6396 8.04325 21.6396 7.98438H19.6396C19.6396 8.33566 19.7243 8.78425 20.0702 9.14141C20.4218 9.50457 20.8743 9.59961 21.2354 9.59961V7.59961ZM20.8408 7.98438C20.8408 8.0393 20.8275 7.89603 20.9767 7.74437C21.1289 7.58976 21.2789 7.59961 21.2354 7.59961V9.59961C21.5954 9.59961 22.0482 9.50692 22.4022 9.14723C22.7533 8.79049 22.8408 8.33961 22.8408 7.98438H20.8408ZM20.8408 5.47461V7.98438H22.8408V5.47461H20.8408ZM20.4159 4.06737C20.6434 4.29183 20.8408 4.69941 20.8408 5.47461H22.8408C22.8408 4.37481 22.5565 3.36963 21.8204 2.64357L20.4159 4.06737ZM18.96 3.63281C19.7606 3.63281 20.1818 3.83334 20.4111 4.06258L21.8253 2.64836C21.091 1.91406 20.0734 1.63281 18.96 1.63281V3.63281ZM16.46 3.63281H18.96V1.63281H16.46V3.63281ZM16.8447 3.22852C16.8447 3.19244 16.8522 3.3471 16.6941 3.50016C16.5421 3.64741 16.4011 3.63281 16.46 3.63281V1.63281C16.1087 1.63281 15.6601 1.7175 15.3029 2.06332C14.9398 2.41495 14.8447 2.86746 14.8447 3.22852H16.8447ZM16.46 2.83398C16.405 2.83398 16.5483 2.82063 16.7 2.96988C16.8546 3.12203 16.8447 3.27211 16.8447 3.22852H14.8447C14.8447 3.58857 14.9374 4.04138 15.2971 4.39536C15.6538 4.74643 16.1047 4.83398 16.46 4.83398V2.83398ZM18.9307 2.83398H16.46V4.83398H18.9307V2.83398ZM20.8817 3.54103C20.3448 3.02754 19.6476 2.83398 18.9307 2.83398V4.83398C19.2944 4.83398 19.4371 4.92689 19.4992 4.98631L20.8817 3.54103ZM21.6396 5.54297C21.6396 4.80684 21.4422 4.07723 20.8817 3.54103L19.4992 4.98631C19.5376 5.02303 19.6396 5.14628 19.6396 5.54297H21.6396ZM21.6396 7.98438V5.54297H19.6396V7.98438H21.6396ZM6.03027 20.3047C5.23848 20.3047 4.81934 20.1053 4.58894 19.8749L3.17473 21.2891C3.90787 22.0223 4.92103 22.3047 6.03027 22.3047V20.3047ZM8.54004 20.3047H6.03027V22.3047H8.54004V20.3047ZM8.15527 20.709C8.15527 20.7451 8.14777 20.5904 8.30585 20.4373C8.45794 20.2901 8.59891 20.3047 8.54004 20.3047V22.3047C8.89132 22.3047 9.33992 22.22 9.69708 21.8742C10.0602 21.5226 10.1553 21.07 10.1553 20.709H8.15527ZM8.54004 21.1035C8.59496 21.1035 8.45169 21.1169 8.30004 20.9676C8.14543 20.8155 8.15527 20.6654 8.15527 20.709H10.1553C10.1553 20.3489 10.0626 19.8961 9.70289 19.5421C9.34616 19.1911 8.89527 19.1035 8.54004 19.1035V21.1035ZM6.05957 21.1035H8.54004V19.1035H6.05957V21.1035ZM4.09092 20.3888C4.62856 20.9145 5.33875 21.1035 6.05957 21.1035V19.1035C5.67362 19.1035 5.53745 19.006 5.48916 18.9588L4.09092 20.3888ZM3.36035 18.3945C3.36035 19.1189 3.54473 19.8427 4.08293 20.3809L5.49715 18.9667C5.46243 18.932 5.36035 18.8029 5.36035 18.3945H3.36035ZM3.36035 15.9531V18.3945H5.36035V15.9531H3.36035ZM3.75488 16.3379C3.79847 16.3379 3.6484 16.3477 3.49624 16.1931C3.34699 16.0415 3.36035 15.8982 3.36035 15.9531H5.36035C5.36035 15.5979 5.2728 15.147 4.92173 14.7903C4.56775 14.4306 4.11494 14.3379 3.75488 14.3379V16.3379ZM4.15918 15.9531C4.15918 15.8943 4.17378 16.0352 4.02652 16.1873C3.87346 16.3454 3.7188 16.3379 3.75488 16.3379V14.3379C3.39383 14.3379 2.94132 14.4329 2.58969 14.7961C2.24386 15.1532 2.15918 15.6018 2.15918 15.9531H4.15918ZM4.15918 18.4531V15.9531H2.15918V18.4531H4.15918ZM4.58412 19.8701C4.35779 19.6469 4.15918 19.2372 4.15918 18.4531H2.15918C2.15918 19.5571 2.44234 20.5667 3.17956 21.2939L4.58412 19.8701Z" fill="#F0F8FF" mask="url(#path-4-inside-1_501_1647)"/>
</svg>
