<svg width="33" height="32" viewBox="0 0 33 32" fill="none" xmlns="http://www.w3.org/2000/svg">
<path d="M4.25 11.4395C3.69401 11.4395 3.41602 11.1523 3.41602 10.5781V7.06445C3.41602 5.74284 3.75326 4.74935 4.42773 4.08398C5.10221 3.41862 6.10482 3.08594 7.43555 3.08594H10.9492C11.5234 3.08594 11.8105 3.36393 11.8105 3.91992C11.8105 4.48503 11.5234 4.76758 10.9492 4.76758H7.47656C6.70182 4.76758 6.10938 4.9681 5.69922 5.36914C5.29818 5.77018 5.09766 6.36719 5.09766 7.16016V10.5781C5.09766 11.1523 4.8151 11.4395 4.25 11.4395ZM28.7227 11.4395C28.1667 11.4395 27.8887 11.1523 27.8887 10.5781V7.16016C27.8887 6.36719 27.679 5.77018 27.2598 5.36914C26.8405 4.9681 26.2526 4.76758 25.4961 4.76758H22.0371C21.4629 4.76758 21.1758 4.48503 21.1758 3.91992C21.1758 3.36393 21.4629 3.08594 22.0371 3.08594H25.5371C26.877 3.08594 27.8841 3.42318 28.5586 4.09766C29.2331 4.76302 29.5703 5.75195 29.5703 7.06445V10.5781C29.5703 11.1523 29.2878 11.4395 28.7227 11.4395ZM7.43555 29.2266C6.10482 29.2266 5.10221 28.8893 4.42773 28.2148C3.75326 27.5495 3.41602 26.556 3.41602 25.2344V21.7344C3.41602 21.1602 3.69401 20.873 4.25 20.873C4.8151 20.873 5.09766 21.1602 5.09766 21.7344V25.1523C5.09766 25.9453 5.29818 26.5423 5.69922 26.9434C6.10938 27.3444 6.70182 27.5449 7.47656 27.5449H10.9492C11.5234 27.5449 11.8105 27.8275 11.8105 28.3926C11.8105 28.9486 11.5234 29.2266 10.9492 29.2266H7.43555ZM22.0371 29.2266C21.4629 29.2266 21.1758 28.9486 21.1758 28.3926C21.1758 27.8275 21.4629 27.5449 22.0371 27.5449H25.4961C26.2526 27.5449 26.8405 27.3444 27.2598 26.9434C27.679 26.5423 27.8887 25.9453 27.8887 25.1523V21.7344C27.8887 21.1602 28.1667 20.873 28.7227 20.873C29.2878 20.873 29.5703 21.1602 29.5703 21.7344V25.2344C29.5703 26.556 29.2331 27.5495 28.5586 28.2148C27.8841 28.8893 26.877 29.2266 25.5371 29.2266H22.0371Z" fill="#F0F8FF"/>
<path d="M16.5 23.7578C15.4583 23.7578 14.4792 23.5573 13.5625 23.1562C12.651 22.7604 11.8464 22.2135 11.1484 21.5156C10.4505 20.8177 9.90104 20.013 9.5 19.1016C9.10417 18.1849 8.90625 17.2057 8.90625 16.1641C8.90625 15.1276 9.10417 14.151 9.5 13.2344C9.89583 12.3177 10.4427 11.5104 11.1406 10.8125C11.8438 10.1146 12.651 9.56771 13.5625 9.17188C14.4792 8.77604 15.4557 8.57812 16.4922 8.57812C17.5286 8.57812 18.5052 8.77604 19.4219 9.17188C20.3385 9.56771 21.1458 10.1146 21.8438 10.8125C22.5417 11.5104 23.0885 12.3177 23.4844 13.2344C23.8854 14.151 24.0859 15.1276 24.0859 16.1641C24.0859 17.2057 23.888 18.1849 23.4922 19.1016C23.0964 20.013 22.5495 20.8177 21.8516 21.5156C21.1536 22.2135 20.3464 22.7604 19.4297 23.1562C18.513 23.5573 17.5365 23.7578 16.5 23.7578ZM16.5 22.3672C17.3594 22.3672 18.1641 22.2057 18.9141 21.8828C19.6641 21.5651 20.3229 21.1224 20.8906 20.5547C21.4583 19.987 21.901 19.3281 22.2188 18.5781C22.5365 17.8281 22.6953 17.0234 22.6953 16.1641C22.6953 15.3047 22.5365 14.5 22.2188 13.75C21.901 13 21.4583 12.3411 20.8906 11.7734C20.3229 11.2057 19.6615 10.763 18.9062 10.4453C18.1562 10.1276 17.3516 9.96875 16.4922 9.96875C15.6328 9.96875 14.8281 10.1276 14.0781 10.4453C13.3333 10.763 12.6771 11.2057 12.1094 11.7734C11.5417 12.3411 11.099 13 10.7812 13.75C10.4635 14.5 10.3047 15.3047 10.3047 16.1641C10.3047 17.0234 10.4635 17.8281 10.7812 18.5781C11.099 19.3281 11.5417 19.987 12.1094 20.5547C12.6771 21.1224 13.3359 21.5651 14.0859 21.8828C14.8359 22.2057 15.6406 22.3672 16.5 22.3672Z" fill="#F0F8FF"/>
</svg>
