<svg width="29" height="28" viewBox="0 0 29 28" fill="none" xmlns="http://www.w3.org/2000/svg">
<mask id="path-1-inside-1_578_2972" fill="white">
<path fill-rule="evenodd" clip-rule="evenodd" d="M3.15918 7.98438C3.15918 8.39453 3.35775 8.59961 3.75488 8.59961C4.15853 8.59961 4.36035 8.39453 4.36035 7.98438V5.54297C4.36035 4.97656 4.50358 4.55013 4.79004 4.26367C5.08301 3.97721 5.50618 3.83398 6.05957 3.83398H8.54004C8.9502 3.83398 9.15527 3.63216 9.15527 3.22852C9.15527 2.83138 8.9502 2.63281 8.54004 2.63281H6.03027C5.07975 2.63281 4.36361 2.87044 3.88184 3.3457C3.40007 3.82096 3.15918 4.5306 3.15918 5.47461V7.98438ZM20.6396 7.98438C20.6396 8.39453 20.8382 8.59961 21.2354 8.59961C21.639 8.59961 21.8408 8.39453 21.8408 7.98438V5.47461C21.8408 4.53711 21.5999 3.83073 21.1182 3.35547C20.6364 2.8737 19.917 2.63281 18.96 2.63281H16.46C16.0498 2.63281 15.8447 2.83138 15.8447 3.22852C15.8447 3.63216 16.0498 3.83398 16.46 3.83398H18.9307C19.471 3.83398 19.891 3.97721 20.1904 4.26367C20.4899 4.55013 20.6396 4.97656 20.6396 5.54297V7.98438ZM3.88184 20.582C4.36361 21.0638 5.07975 21.3047 6.03027 21.3047H8.54004C8.9502 21.3047 9.15527 21.1061 9.15527 20.709C9.15527 20.3053 8.9502 20.1035 8.54004 20.1035H6.05957C5.50618 20.1035 5.08301 19.9603 4.79004 19.6738C4.50358 19.3874 4.36035 18.9609 4.36035 18.3945V15.9531C4.36035 15.543 4.15853 15.3379 3.75488 15.3379C3.35775 15.3379 3.15918 15.543 3.15918 15.9531V18.4531C3.15918 19.3971 3.40007 20.1068 3.88184 20.582Z"/>
</mask>
<path fill-rule="evenodd" clip-rule="evenodd" d="M3.15918 7.98438C3.15918 8.39453 3.35775 8.59961 3.75488 8.59961C4.15853 8.59961 4.36035 8.39453 4.36035 7.98438V5.54297C4.36035 4.97656 4.50358 4.55013 4.79004 4.26367C5.08301 3.97721 5.50618 3.83398 6.05957 3.83398H8.54004C8.9502 3.83398 9.15527 3.63216 9.15527 3.22852C9.15527 2.83138 8.9502 2.63281 8.54004 2.63281H6.03027C5.07975 2.63281 4.36361 2.87044 3.88184 3.3457C3.40007 3.82096 3.15918 4.5306 3.15918 5.47461V7.98438ZM20.6396 7.98438C20.6396 8.39453 20.8382 8.59961 21.2354 8.59961C21.639 8.59961 21.8408 8.39453 21.8408 7.98438V5.47461C21.8408 4.53711 21.5999 3.83073 21.1182 3.35547C20.6364 2.8737 19.917 2.63281 18.96 2.63281H16.46C16.0498 2.63281 15.8447 2.83138 15.8447 3.22852C15.8447 3.63216 16.0498 3.83398 16.46 3.83398H18.9307C19.471 3.83398 19.891 3.97721 20.1904 4.26367C20.4899 4.55013 20.6396 4.97656 20.6396 5.54297V7.98438ZM3.88184 20.582C4.36361 21.0638 5.07975 21.3047 6.03027 21.3047H8.54004C8.9502 21.3047 9.15527 21.1061 9.15527 20.709C9.15527 20.3053 8.9502 20.1035 8.54004 20.1035H6.05957C5.50618 20.1035 5.08301 19.9603 4.79004 19.6738C4.50358 19.3874 4.36035 18.9609 4.36035 18.3945V15.9531C4.36035 15.543 4.15853 15.3379 3.75488 15.3379C3.35775 15.3379 3.15918 15.543 3.15918 15.9531V18.4531C3.15918 19.3971 3.40007 20.1068 3.88184 20.582Z" fill="#F0F8FF"/>
<path d="M4.79004 4.26367L4.09088 3.54862L4.08293 3.55657L4.79004 4.26367ZM3.88184 3.3457L4.58412 4.0576L3.88184 3.3457ZM21.1182 3.35547L20.411 4.06259L20.4159 4.06737L21.1182 3.35547ZM3.88184 20.582L4.58896 19.8749L4.58412 19.8701L3.88184 20.582ZM4.79004 19.6738L4.08289 20.381L4.09092 20.3888L4.79004 19.6738ZM3.75488 7.59961C3.7188 7.59961 3.87346 7.59211 4.02652 7.75019C4.17378 7.90227 4.15918 8.04325 4.15918 7.98438H2.15918C2.15918 8.33566 2.24386 8.78425 2.58969 9.14141C2.94132 9.50457 3.39383 9.59961 3.75488 9.59961V7.59961ZM3.36035 7.98438C3.36035 8.0393 3.34699 7.89603 3.49624 7.74437C3.6484 7.58976 3.79847 7.59961 3.75488 7.59961V9.59961C4.11494 9.59961 4.56775 9.50692 4.92173 9.14723C5.2728 8.79049 5.36035 8.33961 5.36035 7.98438H3.36035ZM3.36035 5.54297V7.98438H5.36035V5.54297H3.36035ZM4.08293 3.55657C3.54473 4.09477 3.36035 4.81857 3.36035 5.54297H5.36035C5.36035 5.13456 5.46243 5.00549 5.49715 4.97078L4.08293 3.55657ZM6.05957 2.83398C5.33875 2.83398 4.62856 3.02297 4.09092 3.54867L5.48916 4.97868C5.53745 4.93145 5.67362 4.83398 6.05957 4.83398V2.83398ZM8.54004 2.83398H6.05957V4.83398H8.54004V2.83398ZM8.15527 3.22852C8.15527 3.27211 8.14543 3.12203 8.30004 2.96988C8.45169 2.82063 8.59496 2.83398 8.54004 2.83398V4.83398C8.89527 4.83398 9.34616 4.74643 9.70289 4.39536C10.0626 4.04138 10.1553 3.58857 10.1553 3.22852H8.15527ZM8.54004 3.63281C8.59891 3.63281 8.45794 3.64741 8.30585 3.50016C8.14777 3.3471 8.15527 3.19244 8.15527 3.22852H10.1553C10.1553 2.86746 10.0602 2.41495 9.69708 2.06332C9.33992 1.7175 8.89132 1.63281 8.54004 1.63281V3.63281ZM6.03027 3.63281H8.54004V1.63281H6.03027V3.63281ZM4.58412 4.0576C4.81405 3.83078 5.23504 3.63281 6.03027 3.63281V1.63281C4.92446 1.63281 3.91317 1.91011 3.17956 2.6338L4.58412 4.0576ZM4.15918 5.47461C4.15918 4.69055 4.35779 4.28087 4.58412 4.0576L3.17956 2.6338C2.44234 3.36105 2.15918 4.37065 2.15918 5.47461H4.15918ZM4.15918 7.98438V5.47461H2.15918V7.98438H4.15918ZM21.2354 7.59961C21.1993 7.59961 21.3539 7.59211 21.507 7.75019C21.6542 7.90227 21.6396 8.04325 21.6396 7.98438H19.6396C19.6396 8.33566 19.7243 8.78425 20.0702 9.14141C20.4218 9.50457 20.8743 9.59961 21.2354 9.59961V7.59961ZM20.8408 7.98438C20.8408 8.0393 20.8275 7.89603 20.9767 7.74437C21.1289 7.58976 21.2789 7.59961 21.2354 7.59961V9.59961C21.5954 9.59961 22.0482 9.50692 22.4022 9.14723C22.7533 8.79049 22.8408 8.33961 22.8408 7.98438H20.8408ZM20.8408 5.47461V7.98438H22.8408V5.47461H20.8408ZM20.4159 4.06737C20.6434 4.29183 20.8408 4.69941 20.8408 5.47461H22.8408C22.8408 4.37481 22.5565 3.36963 21.8204 2.64357L20.4159 4.06737ZM18.96 3.63281C19.7606 3.63281 20.1818 3.83334 20.4111 4.06258L21.8253 2.64836C21.091 1.91406 20.0734 1.63281 18.96 1.63281V3.63281ZM16.46 3.63281H18.96V1.63281H16.46V3.63281ZM16.8447 3.22852C16.8447 3.19244 16.8522 3.3471 16.6941 3.50016C16.5421 3.64741 16.4011 3.63281 16.46 3.63281V1.63281C16.1087 1.63281 15.6601 1.7175 15.3029 2.06332C14.9398 2.41495 14.8447 2.86746 14.8447 3.22852H16.8447ZM16.46 2.83398C16.405 2.83398 16.5483 2.82063 16.7 2.96988C16.8546 3.12203 16.8447 3.27211 16.8447 3.22852H14.8447C14.8447 3.58857 14.9374 4.04138 15.2971 4.39536C15.6538 4.74643 16.1047 4.83398 16.46 4.83398V2.83398ZM18.9307 2.83398H16.46V4.83398H18.9307V2.83398ZM20.8817 3.54103C20.3448 3.02754 19.6476 2.83398 18.9307 2.83398V4.83398C19.2944 4.83398 19.4371 4.92689 19.4992 4.98631L20.8817 3.54103ZM21.6396 5.54297C21.6396 4.80684 21.4422 4.07723 20.8817 3.54103L19.4992 4.98631C19.5376 5.02303 19.6396 5.14628 19.6396 5.54297H21.6396ZM21.6396 7.98438V5.54297H19.6396V7.98438H21.6396ZM6.03027 20.3047C5.23848 20.3047 4.81934 20.1053 4.58894 19.8749L3.17473 21.2891C3.90787 22.0223 4.92103 22.3047 6.03027 22.3047V20.3047ZM8.54004 20.3047H6.03027V22.3047H8.54004V20.3047ZM8.15527 20.709C8.15527 20.7451 8.14777 20.5904 8.30585 20.4373C8.45794 20.2901 8.59891 20.3047 8.54004 20.3047V22.3047C8.89132 22.3047 9.33992 22.22 9.69708 21.8742C10.0602 21.5226 10.1553 21.07 10.1553 20.709H8.15527ZM8.54004 21.1035C8.59496 21.1035 8.45169 21.1169 8.30004 20.9676C8.14543 20.8155 8.15527 20.6654 8.15527 20.709H10.1553C10.1553 20.3489 10.0626 19.8961 9.70289 19.5421C9.34616 19.1911 8.89527 19.1035 8.54004 19.1035V21.1035ZM6.05957 21.1035H8.54004V19.1035H6.05957V21.1035ZM4.09092 20.3888C4.62856 20.9145 5.33875 21.1035 6.05957 21.1035V19.1035C5.67362 19.1035 5.53745 19.006 5.48916 18.9588L4.09092 20.3888ZM3.36035 18.3945C3.36035 19.1189 3.54473 19.8427 4.08293 20.3809L5.49715 18.9667C5.46243 18.932 5.36035 18.8029 5.36035 18.3945H3.36035ZM3.36035 15.9531V18.3945H5.36035V15.9531H3.36035ZM3.75488 16.3379C3.79847 16.3379 3.6484 16.3477 3.49624 16.1931C3.34699 16.0415 3.36035 15.8982 3.36035 15.9531H5.36035C5.36035 15.5979 5.2728 15.147 4.92173 14.7903C4.56775 14.4306 4.11494 14.3379 3.75488 14.3379V16.3379ZM4.15918 15.9531C4.15918 15.8943 4.17378 16.0352 4.02652 16.1873C3.87346 16.3454 3.7188 16.3379 3.75488 16.3379V14.3379C3.39383 14.3379 2.94132 14.4329 2.58969 14.7961C2.24386 15.1532 2.15918 15.6018 2.15918 15.9531H4.15918ZM4.15918 18.4531V15.9531H2.15918V18.4531H4.15918ZM4.58412 19.8701C4.35779 19.6469 4.15918 19.2372 4.15918 18.4531H2.15918C2.15918 19.5571 2.44234 20.5667 3.17956 21.2939L4.58412 19.8701Z" fill="#F0F8FF" mask="url(#path-1-inside-1_578_2972)"/>
<path d="M11.7525 17.8522C11.9087 18.0084 11.9087 18.2616 11.7525 18.4179C11.5963 18.5741 11.343 18.5741 11.1868 18.4179L11.7525 17.8522ZM6.11992 13.1853C6.11992 12.9643 6.299 12.7853 6.51992 12.7853H10.1199C10.3408 12.7853 10.5199 12.9643 10.5199 13.1853C10.5199 13.4062 10.3408 13.5853 10.1199 13.5853H6.91992V16.7853C6.91992 17.0062 6.74083 17.1853 6.51992 17.1853C6.299 17.1853 6.11992 17.0062 6.11992 16.7853V13.1853ZM11.1868 18.4179L6.23708 13.4681L6.80276 12.9024L11.7525 17.8522L11.1868 18.4179Z" fill="#F0F8FF"/>
<path d="M17.1366 17.3676C17.2928 17.5238 17.5461 17.5238 17.7023 17.3676C17.8585 17.2113 17.8585 16.9581 17.7023 16.8019L17.1366 17.3676ZM7.51992 6.78522C7.29901 6.78522 7.11992 6.96431 7.11992 7.18522L7.11992 10.7852C7.11992 11.0061 7.29901 11.1852 7.51992 11.1852C7.74084 11.1852 7.91992 11.0061 7.91992 10.7852L7.91992 7.58522L11.1199 7.58522C11.3408 7.58522 11.5199 7.40614 11.5199 7.18522C11.5199 6.96431 11.3408 6.78522 11.1199 6.78522L7.51992 6.78522ZM17.7023 16.8019L7.80277 6.90238L7.23708 7.46806L17.1366 17.3676L17.7023 16.8019Z" fill="#F0F8FF"/>
<path d="M18.1972 11.0975C18.3534 11.2537 18.6067 11.2537 18.7629 11.0975C18.9191 10.9413 18.9191 10.6881 18.7629 10.5319L18.1972 11.0975ZM13.5303 5.46495C13.3094 5.46495 13.1303 5.64404 13.1303 5.86495V9.46495C13.1303 9.68586 13.3094 9.86495 13.5303 9.86495C13.7512 9.86495 13.9303 9.68586 13.9303 9.46495V6.26495H17.1303C17.3512 6.26495 17.5303 6.08586 17.5303 5.86495C17.5303 5.64404 17.3512 5.46495 17.1303 5.46495H13.5303ZM18.7629 10.5319L13.8132 5.58211L13.2475 6.14779L18.1972 11.0975L18.7629 10.5319Z" fill="#F0F8FF"/>
<path d="M21.2986 14.3635C21.0348 14.3876 20.7999 14.5799 20.7371 14.8579L20.3904 16.3862L18.696 18.2685C18.4892 18.4979 18.375 18.796 18.375 19.1047V24.875C18.375 25.5656 18.9344 26.125 19.625 26.125H24.6445C25.1077 26.125 25.527 25.8523 25.7151 25.4292L27.5913 21.2068C27.6957 20.973 27.75 20.7196 27.75 20.4634V19.875C27.75 19.1875 27.1875 18.625 26.5 18.625H22.125C22.125 18.625 22.75 17.1433 22.75 16.0395C22.75 15.0314 22.1015 14.5902 21.5671 14.3977C21.4779 14.3653 21.3865 14.3555 21.2986 14.3635ZM16.1875 18.625C15.67 18.625 15.25 19.045 15.25 19.5625V25.1875C15.25 25.705 15.67 26.125 16.1875 26.125C16.705 26.125 17.125 25.705 17.125 25.1875V19.5625C17.125 19.045 16.705 18.625 16.1875 18.625Z" fill="#3DFFAF"/>
</svg>
