<svg width="33" height="32" viewBox="0 0 33 32" fill="none" xmlns="http://www.w3.org/2000/svg">
<path fill-rule="evenodd" clip-rule="evenodd" d="M2.92285 10.4219C2.92285 10.9961 3.20085 11.2832 3.75684 11.2832C4.32194 11.2832 4.60449 10.9961 4.60449 10.4219V7.00391C4.60449 6.21094 4.80501 5.61393 5.20605 5.21289C5.61621 4.81185 6.20866 4.61133 6.9834 4.61133H10.4561C11.0303 4.61133 11.3174 4.32878 11.3174 3.76367C11.3174 3.20768 11.0303 2.92969 10.4561 2.92969H6.94238C5.61165 2.92969 4.60905 3.26237 3.93457 3.92773C3.26009 4.5931 2.92285 5.58659 2.92285 6.9082V10.4219ZM27.3955 10.4219C27.3955 10.9961 27.6735 11.2832 28.2295 11.2832C28.7946 11.2832 29.0771 10.9961 29.0771 10.4219V6.9082C29.0771 5.5957 28.7399 4.60677 28.0654 3.94141C27.391 3.26693 26.3838 2.92969 25.0439 2.92969H21.5439C20.9697 2.92969 20.6826 3.20768 20.6826 3.76367C20.6826 4.32878 20.9697 4.61133 21.5439 4.61133H25.0029C25.7594 4.61133 26.3473 4.81185 26.7666 5.21289C27.1859 5.61393 27.3955 6.21094 27.3955 7.00391V10.4219ZM3.93457 28.0586C4.60905 28.7331 5.61165 29.0703 6.94238 29.0703H10.4561C11.0303 29.0703 11.3174 28.7923 11.3174 28.2363C11.3174 27.6712 11.0303 27.3887 10.4561 27.3887H6.9834C6.20866 27.3887 5.61621 27.1882 5.20605 26.7871C4.80501 26.3861 4.60449 25.7891 4.60449 24.9961V21.5781C4.60449 21.0039 4.32194 20.7168 3.75684 20.7168C3.20085 20.7168 2.92285 21.0039 2.92285 21.5781V25.0781C2.92285 26.3997 3.26009 27.3932 3.93457 28.0586Z" fill="#F0F8FF"/>
<path d="M26.3389 21.0908C26.1278 21.1101 25.9399 21.2639 25.8896 21.4863L25.6123 22.7089L24.2568 24.2148C24.0913 24.3983 24 24.6367 24 24.8837V29.4999C24 30.0524 24.4475 30.4999 25 30.4999H29.0156C29.3861 30.4999 29.7216 30.2818 29.8721 29.9433L31.373 26.5654C31.4565 26.3784 31.5 26.1756 31.5 25.9706V25.4999C31.5 24.9499 31.05 24.4999 30.5 24.4999H27C27 24.4999 27.5 23.3146 27.5 22.4316C27.5 21.6251 26.9812 21.2721 26.5537 21.1181C26.4823 21.0922 26.4092 21.0843 26.3389 21.0908ZM22.25 24.4999C21.836 24.4999 21.5 24.8359 21.5 25.2499V29.7499C21.5 30.1639 21.836 30.4999 22.25 30.4999C22.664 30.4999 23 30.1639 23 29.7499V25.2499C23 24.8359 22.664 24.4999 22.25 24.4999Z" fill="#3DFFAF"/>
<path d="M15.0808 23.5757C15.3151 23.8101 15.3151 24.1899 15.0808 24.4243C14.8464 24.6586 14.4665 24.6586 14.2322 24.4243L15.0808 23.5757ZM7.60209 17.5456C7.60209 17.2142 7.87072 16.9456 8.20209 16.9456H13.6021C13.9335 16.9456 14.2021 17.2142 14.2021 17.5456C14.2021 17.877 13.9335 18.1456 13.6021 18.1456H8.80209V22.9456C8.80209 23.277 8.53346 23.5456 8.20209 23.5456C7.87072 23.5456 7.60209 23.277 7.60209 22.9456V17.5456ZM14.2322 24.4243L7.77782 17.9699L8.62635 17.1213L15.0808 23.5757L14.2322 24.4243Z" fill="#F0F8FF"/>
<path d="M21.9908 23.0544C22.2251 23.2887 22.605 23.2887 22.8393 23.0544C23.0736 22.8201 23.0736 22.4402 22.8393 22.2059L21.9908 23.0544ZM9.50623 9.12131C9.17485 9.12131 8.90623 9.38994 8.90623 9.72131L8.90623 15.1213C8.90623 15.4527 9.17485 15.7213 9.50623 15.7213C9.8376 15.7213 10.1062 15.4527 10.1062 15.1213L10.1062 10.3213L14.9062 10.3213C15.2376 10.3213 15.5062 10.0527 15.5062 9.72131C15.5062 9.38994 15.2376 9.12131 14.9062 9.12131L9.50623 9.12131ZM22.8393 22.2059L9.93049 9.29705L9.08196 10.1456L21.9908 23.0544L22.8393 22.2059Z" fill="#F0F8FF"/>
<path d="M23.3738 14.8784C23.6081 15.1127 23.988 15.1127 24.2224 14.8784C24.4567 14.6441 24.4567 14.2642 24.2224 14.0298L23.3738 14.8784ZM17.3437 7.39969C17.0123 7.39969 16.7437 7.66832 16.7437 7.99969V13.3997C16.7437 13.7311 17.0123 13.9997 17.3437 13.9997C17.6751 13.9997 17.9437 13.7311 17.9437 13.3997V8.59969H22.7437C23.0751 8.59969 23.3437 8.33107 23.3437 7.99969C23.3437 7.66832 23.0751 7.39969 22.7437 7.39969H17.3437ZM24.2224 14.0298L17.768 7.57543L16.9194 8.42396L23.3738 14.8784L24.2224 14.0298Z" fill="#F0F8FF"/>
</svg>
